# Blender 4.2.16 LTS
# www.blender.org
mtllib keybowarrowglass.mtl
o 112691946025878
v 0.031008 -1.901798 -0.074861
v 0.031876 -1.899834 -0.076956
v -0.015631 -2.198798 0.037738
v -0.015631 -2.201798 0.037738
v -0.106643 -1.961198 0.000040
v -0.109271 -1.960245 -0.001048
v -0.069805 1.586760 0.015299
v -0.072377 1.587878 0.014233
v -0.015632 1.637524 0.037738
v -0.015632 1.640524 0.037738
v -0.007978 1.586760 0.095874
v -0.007615 1.587878 0.098634
v 0.006749 1.536985 0.051072
v 0.006842 1.539513 0.052684
v 0.020021 1.529607 0.056570
v 0.022297 1.530721 0.058176
v -0.040884 1.536985 0.031342
v -0.042090 1.539513 0.032416
v 0.046137 1.673243 -0.178746
v 0.045424 1.675582 -0.180484
v 0.004424 1.536985 0.024158
v 0.004096 1.539513 0.022577
v 0.142852 1.673243 0.204564
v 0.144713 1.675582 0.204815
v -0.013481 1.536985 0.065071
v -0.011948 1.539513 0.065578
v -0.036480 1.536985 0.055545
v -0.037923 1.539513 0.054819
v 0.101950 1.673243 0.235949
v 0.101711 1.675582 0.237812
v 0.069502 1.441851 -0.100429
v 0.069983 1.444359 -0.098855
v 0.021870 1.441851 -0.120159
v 0.020593 1.444428 -0.119307
v 0.006749 1.358785 0.051072
v 0.007507 1.361187 0.052702
v -0.238930 1.081043 0.094752
v -0.241094 1.079668 0.096310
v -0.219964 1.645273 0.106744
v -0.220001 1.646162 0.109609
v -0.238930 1.673243 0.094752
v -0.240078 1.675582 0.096238
v -0.054156 1.351230 0.025845
v -0.056921 1.352196 0.025198
v -0.040884 1.358785 0.031342
v -0.042322 1.361309 0.032091
v 0.101950 1.081043 0.235949
v 0.102378 1.079668 0.238581
v -0.036480 0.966561 0.055545
v -0.036642 0.964078 0.057220
v 0.142852 1.081043 0.204564
v 0.145283 1.079668 0.205659
v 0.004424 0.966561 0.024158
v 0.006084 0.964078 0.024435
v 0.093770 1.081043 -0.159016
v 0.095835 1.079668 -0.160703
v 0.006749 0.966561 0.051072
v 0.008281 0.964078 0.050375
v 0.093770 1.673243 -0.159016
v 0.095503 1.675582 -0.159741
v 0.100445 1.088493 -0.137590
v 0.103375 1.087879 -0.137398
v 0.082775 1.424415 -0.094931
v 0.084996 1.425649 -0.093335
v 0.020021 1.341350 0.056570
v 0.022549 1.342074 0.058014
v -0.219964 1.088493 0.106744
v -0.220537 1.087879 0.109624
v -0.040884 0.966561 0.031342
v -0.041474 0.964078 0.029766
v 0.046137 1.081043 -0.178746
v 0.045870 1.079668 -0.181399
v -0.054156 0.994265 0.025845
v -0.056516 0.993210 0.024323
v 0.143757 1.088493 0.182141
v 0.146538 1.087879 0.181197
v 0.015821 0.994265 0.015412
v 0.018319 0.993210 0.014130
v -0.022085 1.473648 -0.000289
v -0.022927 1.472771 -0.003032
v -0.020209 1.445826 0.013955
v -0.021759 1.443467 0.012938
v -0.022085 1.529607 -0.000289
v -0.021792 1.530657 -0.003084
v -0.022085 1.037751 -0.000289
v -0.022424 1.037652 -0.003268
v -0.022085 0.994265 -0.000289
v -0.022424 0.994166 -0.003268
v -0.020209 0.966561 0.013955
v -0.021473 0.964369 0.012343
v -0.230443 1.645273 0.027143
v -0.231196 1.646143 0.024372
v -0.020209 1.536985 0.013955
v -0.018859 1.539513 0.013068
v -0.245660 1.081043 0.043636
v -0.247889 1.079740 0.042109
v -0.013481 0.966561 0.065071
v -0.014551 0.964078 0.066370
v -0.245660 1.673243 0.043636
v -0.247154 1.675582 0.042498
v 0.081794 1.559436 -0.092565
v 0.084381 1.558902 -0.091143
v 0.100445 1.645273 -0.137590
v 0.103222 1.646162 -0.136884
v 0.020021 1.473648 0.056570
v 0.022820 1.472735 0.057147
v 0.020021 0.994265 0.056570
v 0.022766 0.993210 0.057162
v -0.054156 1.529607 0.025845
v -0.056901 1.530721 0.025372
v -0.054156 1.473648 0.025845
v -0.056543 1.472735 0.024274
v 0.026267 1.645273 -0.168315
v 0.023804 1.646162 -0.169780
v 0.026267 1.088493 -0.168315
v 0.024059 1.087879 -0.170252
v 0.007617 1.112633 -0.123290
v 0.004683 1.113209 -0.123532
v -0.054156 1.037751 0.025845
v -0.056925 1.038713 0.025208
v 0.008597 1.364003 -0.125656
v 0.006020 1.363349 -0.127045
v 0.008597 1.424415 -0.125656
v 0.005997 1.425877 -0.125979
v 0.020021 1.284803 0.056570
v 0.022713 1.283565 0.057038
v -0.011605 1.529607 0.079313
v -0.010642 1.530721 0.081927
v -0.171646 1.112633 0.100384
v -0.170697 1.113000 0.103206
v -0.011605 0.994265 0.079313
v -0.011743 0.993210 0.082118
v -0.011605 1.037751 0.079313
v -0.010772 1.038713 0.082029
v 0.080058 1.088493 0.231017
v 0.078427 1.087879 0.233459
v 0.080058 1.645273 0.231017
v 0.078058 1.646162 0.233069
v -0.047877 1.529607 0.064291
v -0.050406 1.530721 0.065458
v -0.047877 0.994265 0.064291
v -0.049762 0.993210 0.066372
v -0.047877 1.037751 0.064291
v -0.050387 1.038713 0.065623
v 0.015821 1.529607 0.015412
v 0.017603 1.530721 0.013271
v 0.015821 1.473648 0.015412
v 0.018375 1.472735 0.014130
v 0.143756 1.645273 0.182141
v 0.146256 1.646162 0.180740
v 0.114089 1.112633 0.143478
v 0.115766 1.113209 0.141058
v 0.030888 -1.985417 0.002042
v 0.033268 -1.985417 0.000216
v 0.030888 1.586760 0.002042
v 0.033097 1.587878 0.000347
v 0.038543 1.586760 0.060178
v 0.041115 1.587878 0.061243
v -0.023285 -1.985417 -0.020398
v -0.023677 -1.985417 -0.023372
v 0.038544 -1.985417 0.060178
v 0.041316 -1.985417 0.061326
v -0.023285 1.586760 -0.020398
v -0.023648 1.587878 -0.023158
v -0.069805 -1.985417 0.015299
v -0.072577 -1.985417 0.014151
v -0.007978 -1.985417 0.095874
v -0.007586 -1.985417 0.098848
v -0.062152 1.586760 0.073434
v -0.064361 1.587878 0.075129
v -0.062151 -1.985417 0.073435
v -0.064531 -1.985417 0.075261
v 0.081794 1.112633 -0.092565
v 0.084040 1.113209 -0.090662
v 0.061925 1.120645 -0.082136
v 0.062390 1.122130 -0.079571
v 0.020021 1.037751 0.056570
v 0.022429 1.038713 0.058078
v 0.014292 1.120645 -0.101866
v 0.012150 1.122130 -0.100381
v 0.007617 1.559436 -0.123290
v 0.004782 1.558902 -0.124114
v -0.156430 1.120645 0.083891
v -0.154073 1.122130 0.085004
v -0.156430 1.531612 0.083891
v -0.155190 1.529932 0.086044
v -0.171646 1.559436 0.100384
v -0.171145 1.559252 0.103336
v -0.011605 1.473648 0.079313
v -0.011772 1.472735 0.082166
v 0.050391 1.112633 0.192355
v 0.047620 1.113209 0.193348
v 0.050391 1.559436 0.192355
v 0.047866 1.558902 0.193885
v 0.051293 1.531612 0.169933
v 0.048893 1.529932 0.170579
v -0.047877 1.473648 0.064291
v -0.049776 1.472735 0.066426
v 0.015821 1.037751 0.015412
v 0.017757 1.038713 0.013332
v 0.092198 1.531612 0.138545
v 0.093443 1.529932 0.136394
v 0.114089 1.559436 0.143478
v 0.116220 1.558902 0.141435
v 0.021870 1.346826 -0.120159
v 0.020909 1.344475 -0.121756
v -0.040884 1.267624 0.031342
v -0.041511 1.265127 0.029801
v -0.054156 1.294222 0.025845
v -0.056538 1.293181 0.024347
v 0.069502 1.346826 -0.100429
v 0.071166 1.344398 -0.101009
v 0.082775 1.364003 -0.094931
v 0.085577 1.363259 -0.094160
v 0.006749 1.267624 0.051072
v 0.008188 1.265094 0.050346
v -0.184665 1.444216 0.021116
v -0.184223 1.445474 0.018429
v -0.022085 1.341350 -0.000289
v -0.022050 1.342015 -0.003214
v -0.184665 1.383805 0.021116
v -0.185451 1.383122 0.018302
v -0.022085 1.284803 -0.000289
v -0.023183 1.283538 -0.002778
v -0.020209 1.358785 0.013955
v -0.018956 1.361074 0.012475
v -0.182791 1.366624 0.035359
v -0.184346 1.364308 0.034256
v -0.182791 1.461651 0.035359
v -0.181426 1.464052 0.034187
v -0.020209 1.267624 0.013955
v -0.021789 1.265199 0.013166
v -0.013481 1.358785 0.065071
v -0.011886 1.361192 0.065885
v -0.013481 1.267624 0.065071
v -0.014754 1.265224 0.066343
v -0.176061 1.461651 0.086476
v -0.174453 1.464113 0.087069
v -0.176061 1.366624 0.086476
v -0.177182 1.364381 0.088123
v -0.174186 1.444216 0.100717
v -0.172987 1.445700 0.103032
v -0.011605 1.294222 0.079313
v -0.011861 1.293148 0.082102
v -0.011605 1.351230 0.079313
v -0.010707 1.352127 0.082031
v -0.174186 1.383805 0.100717
v -0.174149 1.383202 0.103655
v 0.104250 1.461651 0.154255
v 0.103959 1.464113 0.152566
v -0.036480 1.358785 0.055545
v -0.038389 1.361074 0.055200
v 0.063347 1.461651 0.185642
v 0.061650 1.464052 0.185046
v 0.051950 1.444216 0.194386
v 0.049402 1.445474 0.195347
v 0.004424 1.358785 0.024158
v 0.004332 1.361192 0.022370
v -0.047877 1.341350 0.064291
v -0.050428 1.342015 0.065723
v 0.115648 1.444216 0.145509
v 0.117053 1.445700 0.143313
v 0.051950 1.383805 0.194386
v 0.049907 1.383122 0.196474
v 0.015821 1.351230 0.015412
v 0.017726 1.352127 0.013275
v -0.047877 1.284803 0.064291
v -0.049484 1.283538 0.066486
v 0.115648 1.383805 0.145509
v 0.118174 1.383202 0.144008
v 0.063347 1.366624 0.185642
v 0.063170 1.364308 0.187540
v 0.015821 1.294222 0.015412
v 0.018365 1.293148 0.014239
v -0.036480 1.267624 0.055545
v -0.036373 1.265199 0.057308
v 0.104250 1.366624 0.154255
v 0.106237 1.364381 0.154402
v 0.004424 1.267624 0.024158
v 0.006162 1.265224 0.024624
v 0.061925 1.531612 -0.082136
v 0.063684 1.529932 -0.080381
v 0.006749 1.445826 0.051072
v 0.008404 1.443467 0.050238
v 0.014292 1.531612 -0.101866
v 0.011807 1.529932 -0.101869
v -0.040884 1.445826 0.031342
v -0.041465 1.443467 0.029582
v -0.040884 1.045759 0.031342
v -0.042319 1.048275 0.032124
v 0.006749 1.045759 0.051072
v 0.007211 1.048275 0.052639
v -0.013481 1.045759 0.065071
v -0.012086 1.048275 0.065923
v -0.163158 1.120645 0.032773
v -0.161341 1.121824 0.030697
v -0.020209 1.045759 0.013955
v -0.019555 1.047454 0.011568
v -0.163158 1.531612 0.032773
v -0.162368 1.529538 0.030755
v -0.013481 1.445826 0.065071
v -0.014715 1.443467 0.066454
v 0.004424 1.445826 0.024158
v 0.006239 1.443467 0.024535
v -0.036480 1.445826 0.055545
v -0.036586 1.443467 0.057395
v 0.051293 1.120645 0.169933
v 0.048839 1.122130 0.169053
v 0.092198 1.120645 0.138545
v 0.091983 1.122130 0.135947
v 0.004424 1.045759 0.024158
v 0.004464 1.048275 0.022524
v -0.036480 1.045759 0.055545
v -0.038068 1.048275 0.055161
v 0.075382 -1.961198 0.075437
v 0.078010 -1.960245 0.076526
v -0.062272 -1.901798 0.150337
v -0.063140 -1.899834 0.152432
v -0.106185 -1.961580 -0.000957
v 0.029623 -1.903224 -0.074407
v -0.016233 -2.194957 0.036302
v 0.031667 -1.903224 -0.073561
v 0.075763 -1.961580 0.074408
v -0.014189 -2.194957 0.037148
v -0.062931 -1.903224 0.149037
v -0.107024 -1.961580 0.001069
v -0.017073 -2.194957 0.038328
v 0.074924 -1.961580 0.076434
v -0.060887 -1.903224 0.149884
v -0.015029 -2.194957 0.039175
v -0.024592 1.588379 -0.019577
v -0.068674 1.588379 0.014249
v -0.017340 1.636219 0.035511
v -0.069748 1.588379 0.016841
v -0.062496 1.588379 0.071929
v -0.018414 1.636219 0.038104
v 0.029524 1.588379 0.001320
v -0.021810 1.588379 -0.019944
v -0.014558 1.636219 0.035145
v -0.060788 1.588379 0.074156
v -0.009453 1.588379 0.095420
v -0.016706 1.636219 0.040331
v 0.038486 1.588379 0.058635
v 0.031232 1.588379 0.003546
v -0.012850 1.636219 0.037372
v -0.006671 1.588379 0.095053
v 0.037412 1.588379 0.061228
v -0.013924 1.636219 0.039964
v 0.004880 0.965994 0.026272
v 0.142062 1.079681 0.204962
v 0.102539 1.079681 0.235289
v -0.034555 0.965994 0.056532
v 0.019121 1.554786 0.024820
v 0.100494 1.646461 -0.136779
v 0.094270 1.671077 -0.155795
v 0.085350 1.624532 -0.101018
v 0.008644 1.538250 0.051185
v 0.020411 1.531608 0.055605
v -0.039281 0.965994 0.029890
v 0.046876 1.079681 -0.178261
v 0.092904 1.079681 -0.159196
v 0.006642 0.965994 0.048912
v 0.011080 1.624531 -0.131781
v -0.053749 1.531608 0.024887
v -0.042304 1.538250 0.030082
v 0.025659 1.646461 -0.167776
v -0.031069 1.554787 0.004030
v 0.043506 1.671077 -0.176822
v 0.023168 1.554785 0.046312
v 0.142501 1.671077 0.201323
v 0.143593 1.646461 0.181345
v 0.119711 1.624532 0.150722
v 0.016447 1.531608 0.016243
v 0.006225 1.538250 0.023558
v -0.180730 1.624531 0.101629
v -0.012638 1.531608 0.079439
v -0.013862 1.538250 0.066931
v -0.219193 1.646461 0.107001
v -0.042040 1.554787 0.070227
v -0.235948 1.671077 0.096068
v -0.019931 1.554787 0.079385
v 0.079331 1.646461 0.230653
v 0.098910 1.671077 0.234771
v 0.055934 1.624532 0.199660
v -0.037526 1.538250 0.057129
v -0.047236 1.531608 0.065111
v 0.050498 1.530005 0.168320
v -0.034558 1.445413 0.056580
v 0.004926 1.445413 0.026282
v 0.090846 1.530005 0.137360
v -0.238744 1.155820 0.096332
v -0.221268 1.645216 0.107363
v -0.238236 1.670146 0.096297
v -0.221250 1.570253 0.107375
v -0.238672 1.082462 0.096378
v -0.221518 1.089269 0.107382
v -0.172680 1.384393 0.101990
v -0.013220 1.296214 0.080903
v -0.012643 1.350805 0.080868
v -0.172099 1.442383 0.101679
v -0.063537 -1.983917 0.072861
v -0.063452 1.585819 0.072794
v -0.070895 1.585819 0.016253
v -0.070995 -1.983917 0.016212
v 0.014435 1.529272 -0.101293
v 0.014607 1.122888 -0.100549
v 0.060771 1.122888 -0.081428
v 0.061419 1.529272 -0.081832
v -0.061871 1.585819 0.074855
v -0.061955 -1.983917 0.074922
v -0.009168 -1.983917 0.096787
v -0.009182 1.585819 0.096680
v -0.039295 1.445413 0.029845
v 0.013942 1.530005 -0.100102
v 0.060925 1.530005 -0.080641
v 0.006684 1.445413 0.048890
v 0.095249 1.155812 -0.158428
v 0.095083 1.670146 -0.157946
v 0.101381 1.645216 -0.138689
v 0.095274 1.082462 -0.158346
v 0.101387 1.570261 -0.138669
v 0.101464 1.089269 -0.138926
v -0.041316 0.967507 0.028916
v -0.054089 0.992967 0.024010
v 0.026036 1.086899 -0.168569
v 0.043942 1.080121 -0.177865
v -0.023884 1.283762 -0.000312
v -0.022523 1.268510 0.012704
v -0.182319 1.365875 0.033586
v -0.183535 1.381366 0.020566
v 0.079901 1.086899 0.231322
v -0.047337 0.992967 0.066046
v -0.036269 0.967507 0.058000
v 0.099602 1.080121 0.235666
v 0.026364 1.570261 -0.169744
v 0.044600 1.082462 -0.179336
v 0.026491 1.089269 -0.169981
v 0.044675 1.155812 -0.179375
v 0.026382 1.645216 -0.169754
v 0.044452 1.670146 -0.178918
v 0.144092 1.086899 0.182068
v 0.143186 1.080121 0.202223
v 0.006741 0.967507 0.024997
v 0.017376 0.992967 0.016387
v 0.100618 1.082462 0.236916
v 0.080521 1.570258 0.232373
v 0.080706 1.089269 0.232567
v 0.100701 1.155815 0.236935
v 0.100367 1.670146 0.236551
v 0.080542 1.645216 0.232377
v 0.100788 1.086899 -0.137606
v 0.021271 0.992967 0.055225
v 0.008770 0.967507 0.049662
v 0.094699 1.080121 -0.156841
v 0.144946 1.570260 0.182939
v 0.144131 1.082462 0.203528
v 0.145087 1.089269 0.183168
v 0.144128 1.155813 0.203613
v 0.144945 1.645216 0.182961
v 0.143843 1.670146 0.203191
v -0.148026 1.523167 0.029045
v -0.023828 1.472399 -0.000616
v -0.022519 1.447004 0.012869
v 0.016573 1.039623 0.016290
v 0.006342 1.046977 0.023606
v 0.092741 1.120018 0.136392
v 0.112354 1.112773 0.140647
v -0.015366 0.967507 0.066658
v -0.013227 0.992967 0.080172
v -0.220068 1.086899 0.107071
v -0.237070 1.080121 0.096212
v -0.191215 1.624524 0.021923
v -0.021058 1.538250 0.012257
v -0.023096 1.531576 -0.000154
v -0.014299 1.047708 0.064183
v -0.021006 1.047298 0.014422
v -0.160734 1.120543 0.033048
v -0.154127 1.120696 0.082786
v -0.163737 1.120323 0.031931
v -0.021412 1.046567 0.011607
v -0.022450 1.038583 -0.003266
v -0.022450 0.993850 -0.003266
v -0.022388 0.967653 0.012593
v -0.245265 1.081301 0.042631
v -0.229402 1.643213 0.025614
v -0.023426 1.529246 -0.001491
v -0.023966 1.475425 -0.001318
v -0.164223 1.532790 0.032106
v -0.049130 1.554786 0.016366
v -0.229753 1.646452 0.026689
v -0.243121 1.671077 0.041592
v 0.020972 1.283655 0.055089
v 0.008960 1.268272 0.049776
v 0.070729 1.346140 -0.099005
v 0.082685 1.361718 -0.093612
v -0.245758 1.155851 0.041770
v -0.245390 1.670146 0.041964
v -0.231851 1.645207 0.026876
v -0.022095 -1.983917 -0.021311
v -0.022081 1.585819 -0.021204
v 0.030607 1.585819 0.000620
v 0.030692 -1.983917 0.000555
v 0.083662 1.561665 -0.093240
v 0.083491 1.111963 -0.092999
v 0.021799 1.037274 0.055938
v 0.021968 0.996054 0.055480
v 0.101336 1.089157 -0.136108
v 0.101259 1.643180 -0.135851
v 0.021733 1.529278 0.055987
v 0.021994 1.475687 0.055473
v -0.013161 0.996054 0.080911
v -0.012676 1.037274 0.080867
v -0.171150 1.111153 0.101792
v -0.216765 1.088253 0.107725
v -0.054954 1.529278 0.024222
v 0.024462 1.643180 -0.167662
v 0.024589 1.089157 -0.167897
v -0.054762 0.996054 0.023698
v -0.054967 1.037274 0.024141
v 0.006724 1.111963 -0.124797
v 0.006774 1.561665 -0.125088
v -0.054776 1.475687 0.023674
v -0.182926 1.445240 0.020627
v -0.180864 1.460708 0.033554
v -0.021100 1.359534 0.012360
v -0.023312 1.343825 -0.000533
v -0.042334 1.360026 0.029932
v 0.019745 1.441181 -0.118803
v 0.007673 1.425722 -0.124100
v -0.053756 1.353047 0.024750
v -0.019904 1.533326 0.081776
v -0.216093 1.641846 0.107664
v -0.170444 1.560692 0.101735
v -0.162175 1.556100 0.100646
v -0.013176 1.475687 0.080935
v -0.012611 1.528916 0.080816
v -0.218495 1.640037 0.107981
v -0.218763 1.117254 0.107988
v -0.172924 1.559021 0.102061
v -0.172659 1.113747 0.101991
v -0.172883 1.530276 0.102056
v -0.218494 1.090738 0.107953
v 0.050042 1.561665 0.194310
v 0.049918 1.111963 0.194042
v -0.048219 1.037274 0.066147
v -0.047907 0.996054 0.066522
v 0.078329 1.089157 0.231048
v 0.078145 1.643180 0.230853
v -0.048228 1.529278 0.066065
v -0.047913 1.475687 0.066549
v 0.017625 1.529278 0.015532
v 0.144093 1.643180 0.180251
v 0.144234 1.089157 0.180479
v 0.017983 0.996054 0.015961
v 0.017702 1.037274 0.015562
v 0.115841 1.111963 0.143458
v 0.116068 1.561665 0.143646
v 0.018011 1.475687 0.015961
v 0.102141 1.462085 0.153315
v 0.003961 1.360786 0.025185
v -0.035471 1.360727 0.055467
v 0.062915 1.462054 0.183423
v -0.070001 -1.983917 0.013812
v -0.069901 1.585819 0.013853
v -0.024657 1.585819 -0.020865
v -0.024671 -1.983917 -0.020972
v -0.035228 1.539020 0.055290
v 0.102237 1.673642 0.234946
v 0.141809 1.673642 0.204582
v 0.003853 1.539020 0.025301
v 0.091630 1.529272 0.138383
v 0.090900 1.122888 0.138159
v 0.051256 1.122888 0.168580
v 0.051283 1.529272 0.169343
v -0.039295 1.267028 0.029898
v 0.022258 1.344998 -0.119135
v 0.068431 1.344959 -0.100045
v 0.006600 1.267012 0.048887
v 0.039633 1.585819 0.059223
v 0.039734 -1.983917 0.059265
v 0.032274 -1.983917 0.002616
v 0.032188 1.585819 0.002682
v 0.081589 1.168975 -0.090916
v 0.081759 1.554920 -0.091157
v 0.064158 1.530278 -0.081969
v 0.080896 1.556109 -0.089138
v 0.027914 1.482193 0.038606
v 0.063406 1.531624 -0.080008
v 0.008844 1.447004 0.049614
v 0.057791 1.523364 -0.067136
v 0.021177 1.472381 0.055191
v 0.081484 1.115092 -0.090861
v 0.064133 1.474718 -0.081955
v 0.063485 1.122445 -0.081551
v -0.012742 1.039623 0.079526
v -0.013962 1.046977 0.067008
v -0.154837 1.120018 0.085437
v -0.168480 1.112669 0.100377
v 0.063006 1.120018 -0.080197
v 0.008745 1.046977 0.051108
v 0.020520 1.039623 0.055527
v 0.080851 1.112773 -0.089381
v 0.012603 1.474718 -0.103299
v 0.006631 1.115092 -0.121866
v 0.012775 1.122445 -0.102556
v 0.006596 1.168975 -0.121979
v 0.012595 1.530278 -0.103327
v 0.006646 1.554920 -0.122270
v -0.047035 1.482194 0.007561
v 0.005829 1.556109 -0.120231
v 0.011740 1.531624 -0.101409
v 0.006609 1.523364 -0.088336
v -0.041334 1.447004 0.028829
v -0.053999 1.472382 0.024053
v -0.156827 1.474718 0.086070
v -0.170074 1.114987 0.100605
v -0.156268 1.122445 0.085550
v -0.170154 1.168870 0.100693
v -0.156846 1.530278 0.086091
v -0.170378 1.555095 0.100757
v -0.031000 1.482194 0.082288
v -0.168204 1.556284 0.100446
v -0.154758 1.531624 0.085872
v -0.013236 1.472382 0.080073
v -0.140871 1.523364 0.083780
v -0.015432 1.447004 0.066717
v 0.049066 1.168974 0.191353
v 0.049189 1.554920 0.191621
v 0.050032 1.530278 0.171783
v -0.036266 1.482194 0.080109
v 0.048710 1.531624 0.170152
v 0.047872 1.556109 0.189863
v 0.040370 1.523364 0.158853
v -0.047261 1.472381 0.065981
v -0.036265 1.447004 0.058088
v 0.049070 1.115092 0.191235
v 0.050033 1.474719 0.171755
v 0.050006 1.122445 0.170992
v -0.053772 1.039623 0.024754
v -0.042321 1.046977 0.029956
v 0.012156 1.120018 -0.101260
v 0.006033 1.112773 -0.120372
v -0.023554 1.340853 -0.001556
v -0.024121 1.286828 -0.001338
v -0.183571 1.384310 0.019513
v -0.182957 1.442133 0.019576
v 0.094284 1.474718 0.137799
v 0.113349 1.115092 0.141912
v 0.093554 1.122445 0.137576
v 0.113464 1.168975 0.141938
v 0.094312 1.530278 0.137805
v 0.113691 1.554920 0.142127
v 0.028095 1.482194 0.030722
v 0.112334 1.556109 0.140400
v 0.093078 1.531624 0.136106
v 0.084323 1.523364 0.125126
v 0.006825 1.447004 0.025024
v 0.017295 1.472381 0.016444
v 0.021859 1.340790 0.055906
v 0.021941 1.286574 0.055418
v 0.083602 1.364572 -0.093160
v 0.083311 1.422590 -0.092747
v 0.008615 1.359474 0.050958
v 0.020891 1.343670 0.055583
v 0.082399 1.425544 -0.093203
v 0.070137 1.441146 -0.097933
v -0.047767 1.286828 0.066579
v 0.050015 1.384310 0.194240
v 0.049763 1.442133 0.193676
v -0.048239 1.340853 0.066197
v -0.037416 1.359534 0.057114
v -0.047475 1.343826 0.065475
v 0.050657 1.445240 0.193124
v 0.060820 1.460708 0.184875
v -0.046997 1.283762 0.065860
v -0.036407 1.268510 0.058174
v 0.061575 1.365875 0.186119
v 0.050908 1.381366 0.193682
v -0.015586 1.267199 0.064388
v -0.175544 1.364727 0.085645
v -0.182100 1.364691 0.036127
v -0.022077 1.267187 0.015215
v -0.161289 1.529808 0.033083
v -0.022066 1.445413 0.015102
v -0.015572 1.445413 0.064444
v -0.154727 1.530005 0.083312
v -0.013275 1.293022 0.080118
v -0.172899 1.381492 0.100976
v -0.175098 1.365912 0.088156
v -0.015443 1.268776 0.066689
v 0.105223 1.365911 0.152581
v 0.006806 1.268776 0.025048
v 0.017353 1.293023 0.016456
v 0.115228 1.381493 0.144265
v 0.115998 1.384393 0.143568
v 0.018006 1.296214 0.016015
v 0.017687 1.350805 0.015533
v 0.115438 1.442383 0.143221
v 0.004885 1.267199 0.026323
v 0.103272 1.364727 0.154223
v 0.063667 1.364691 0.184659
v -0.034455 1.267187 0.056532
v -0.054083 1.292921 0.024028
v 0.007687 1.361854 -0.124628
v 0.019898 1.346179 -0.120024
v -0.041351 1.268510 0.028926
v -0.172322 1.445410 0.100668
v -0.012663 1.353156 0.079495
v -0.013805 1.360091 0.067008
v -0.173739 1.460739 0.087627
v 0.114673 1.445410 0.143920
v 0.016507 1.353156 0.016237
v 0.006263 1.360091 0.023470
v 0.104086 1.460739 0.151668
v -0.054965 1.350740 0.024135
v 0.006723 1.422834 -0.124432
v 0.006734 1.364668 -0.124965
v -0.054773 1.295970 0.023710
v 0.049073 1.120018 0.169900
v -0.037509 1.046977 0.057255
v -0.047224 1.039623 0.065245
v 0.048105 1.112773 0.189946
v -0.180653 1.462054 0.036094
v -0.174193 1.462085 0.085119
v -0.014139 1.360786 0.064157
v -0.020646 1.360726 0.014868
v 0.004065 1.047708 0.025310
v -0.035274 1.047708 0.055496
v 0.050446 1.120696 0.167524
v 0.090090 1.120696 0.137103
v -0.039706 1.047708 0.031077
v 0.006103 1.047708 0.050052
v 0.060262 1.120696 -0.080198
v 0.014097 1.120696 -0.099320
v 0.047389 1.081856 -0.179498
v 0.047166 1.672913 -0.179041
v 0.093251 1.672913 -0.159952
v 0.093417 1.081856 -0.160434
v 0.046674 1.673642 -0.177852
v -0.039609 1.539020 0.031264
v 0.005902 1.539020 0.050115
v 0.092758 1.673642 -0.158764
v -0.244935 1.673642 0.044386
v -0.238424 1.673642 0.093840
v -0.014186 1.539020 0.064005
v -0.020614 1.539020 0.015167
v 0.142878 1.081856 0.206025
v 0.142593 1.672913 0.205603
v 0.103021 1.672913 0.235967
v 0.103354 1.081856 0.236352
v -0.015540 0.965994 0.064408
v -0.238879 1.079681 0.093869
v -0.245250 1.079717 0.044185
v -0.021974 0.966140 0.014811
v -0.006606 1.585819 0.096341
v -0.006592 -1.983917 0.096448
v 0.038740 -1.983917 0.061665
v 0.038639 1.585819 0.061624
v -0.162054 1.122735 0.033222
v -0.162567 1.529075 0.033251
v -0.156006 1.529272 0.083480
v -0.155447 1.122888 0.082960
v -0.039705 1.360725 0.031054
v 0.006254 1.360664 0.050077
v 0.067845 1.442427 -0.098980
v 0.022105 1.442462 -0.117923
v 0.073460 -1.960064 0.076101
v -0.105753 -1.960064 0.001868
v -0.061828 -1.901934 0.149265
v 0.030564 -1.901934 -0.073789
v -0.104721 -1.960064 -0.000623
v 0.074492 -1.960064 0.073609
v -0.240208 1.081856 0.094044
v -0.239700 1.672913 0.094008
v -0.246211 1.672913 0.044554
v -0.246579 1.081892 0.044359
vn -0.2779 -0.9575 -0.0774
vn 0.8541 -0.3813 0.3538
vn 0.6076 -0.5904 -0.5313
vn -0.8848 0.2879 -0.3665
vn 0.3018 0.6148 -0.7287
vn 0.1811 0.6709 -0.7191
vn -0.2982 -0.6265 0.7201
vn -0.0000 -1.0000 -0.0000
vn -0.0000 1.0000 -0.0000
vn 0.2512 -0.9575 0.1418
vn -0.8541 -0.3813 -0.3538
vn 0.8847 0.2879 0.3666
vn -0.0539 -0.5904 -0.8053
vn 0.3805 0.6711 -0.6363
vn -0.2512 -0.9575 -0.1420
vn 0.2982 -0.6266 -0.7201
vn 0.0539 -0.5904 0.8053
vn -0.3806 0.6711 0.6362
vn -0.3018 0.6148 0.7286
vn 0.2779 -0.9575 0.0774
vn -0.6076 -0.5904 0.5312
vn -0.1813 0.6709 0.7191
vn -0.5073 0.6152 0.6034
vn 0.8244 -0.4515 0.3412
vn 0.1165 -0.4515 0.8846
vn -0.8641 0.3534 -0.3583
vn 0.7141 0.6152 -0.3340
vn -0.5657 -0.3695 -0.7372
vn -0.1221 0.3531 -0.9276
vn 0.0684 0.6149 -0.7856
vn 0.2688 0.6152 0.7411
vn -0.7423 0.3534 0.5693
vn -0.9213 -0.3694 0.1212
vn 0.7078 -0.4515 -0.5433
vn 0.6462 0.6153 0.4515
vn -0.7080 -0.4514 0.5431
vn -0.7762 0.6152 -0.1379
vn 0.7421 0.3531 -0.5698
vn 0.3556 -0.3694 -0.8585
vn -0.6461 0.6146 -0.4526
vn 0.7765 0.6148 0.1381
vn 0.1216 0.3537 0.9274
vn -0.3556 -0.3694 0.8585
vn -0.1169 -0.4514 -0.8846
vn -0.2688 0.6153 -0.7411
vn -0.8243 -0.4516 -0.3414
vn -0.0679 0.6153 0.7854
vn 0.9213 -0.3696 -0.1212
vn 0.8644 0.3531 0.3580
vn -0.7141 0.6153 0.3339
vn 0.5082 0.6144 -0.6036
vn 0.5657 -0.3695 0.7372
vn -0.1257 0.1536 0.9801
vn -0.8428 0.4511 -0.2936
vn -0.3372 0.8546 0.3948
vn -0.7741 -0.6280 0.0792
vn 0.6726 -0.6007 0.4321
vn 0.7919 -0.4692 0.3907
vn -0.0654 0.4512 -0.8900
vn 0.2769 -0.6280 -0.7273
vn 0.1724 -0.4692 0.8661
vn 0.9792 0.1536 0.1323
vn 0.2435 -0.6009 0.7614
vn 0.4685 0.8547 -0.2234
vn 0.6691 0.7431 -0.0045
vn -0.9470 -0.2095 -0.2436
vn -0.0092 -0.5547 -0.8320
vn 0.8757 0.4254 0.2286
vn -0.6352 0.5377 0.5544
vn 0.2021 -0.1546 0.9671
vn 0.4571 0.8306 -0.3180
vn -0.7277 -0.6767 0.1124
vn 0.3728 0.8986 0.2314
vn 0.0115 0.7784 0.6277
vn 0.8605 -0.1000 -0.4996
vn -0.4609 -0.2767 -0.8432
vn -0.4743 0.7350 -0.4845
vn 0.9683 0.2123 0.1314
vn 0.9117 0.1536 -0.3812
vn 0.1672 0.4511 0.8767
vn 0.5105 0.8546 0.0947
vn 0.4554 -0.6283 0.6307
vn 0.0379 -0.6007 -0.7986
vn -0.0577 -0.4693 -0.8812
vn -0.7682 -0.6281 0.1239
vn 0.6638 -0.4692 -0.5824
vn -0.3753 0.1538 -0.9141
vn -0.7381 0.4511 0.5017
vn 0.5374 -0.6011 -0.5914
vn -0.4277 0.8548 -0.2939
vn -0.4133 0.5834 0.6992
vn 0.8837 -0.3775 -0.2767
vn 0.8219 -0.2650 0.5042
vn -0.7462 0.4095 -0.5248
vn 0.6780 0.7350 -0.0072
vn -0.1188 -0.1218 -0.9854
vn -0.2208 0.9718 -0.0830
vn 0.4319 -0.5565 -0.7097
vn -0.8121 0.3656 -0.4549
vn -0.6617 0.6846 -0.3057
vn 0.1283 0.6973 0.7052
vn 0.4231 -0.6723 0.6074
vn -0.1315 0.8317 -0.5395
vn -0.8434 -0.0309 0.5364
vn 0.6681 0.7344 -0.1196
vn -0.7376 -0.6724 0.0629
vn 0.3652 -0.6312 0.6842
vn 0.5328 0.8317 0.1563
vn -0.0430 -0.0320 -0.9986
vn -0.8093 -0.1699 0.5623
vn 0.7732 0.4906 -0.4019
vn -0.7480 0.5448 -0.3792
vn 0.1044 0.9737 -0.2027
vn -0.3993 0.5823 -0.7082
vn -0.2278 -0.3410 0.9120
vn 0.8428 0.3275 -0.4271
vn -0.3339 0.7343 0.5910
vn 0.9123 -0.1241 0.3903
vn 0.8124 0.5830 0.0083
vn -0.6345 -0.3590 -0.6844
vn -0.0107 -0.2188 -0.9757
vn -0.0304 0.3882 0.9211
vn -0.3451 0.7346 -0.5842
vn -0.7938 -0.1240 0.5954
vn 0.0385 0.9718 0.2327
vn -0.8307 -0.5564 -0.0192
vn -0.0277 0.4084 0.9124
vn 0.0653 0.6847 0.7259
vn 0.5456 0.6972 -0.4649
vn 0.3143 -0.6724 -0.6701
vn -0.4016 0.8317 0.3835
vn 0.8861 -0.0314 0.4624
vn -0.2281 0.7923 0.5659
vn 0.6757 -0.2473 -0.6944
vn 0.7475 -0.5395 0.3876
vn -0.5996 0.4645 0.6517
vn -0.1619 0.5388 -0.8267
vn -0.9534 -0.0314 -0.2999
vn 0.0128 0.8317 0.5551
vn 0.2549 -0.6840 -0.6835
vn -0.4050 0.8832 0.2364
vn -0.5485 0.7787 -0.3047
vn 0.1220 -0.1231 0.9849
vn 0.9291 -0.3687 0.0302
vn 0.6571 0.7346 -0.1691
vn -0.6023 0.3897 0.6967
vn 0.4305 -0.4345 -0.7911
vn 0.4350 0.8491 -0.2997
vn 0.7345 0.6746 -0.0738
vn 0.9674 0.1668 0.1905
vn -0.8040 -0.4008 0.4393
vn 0.2472 -0.5669 0.7858
vn -0.4320 0.8326 0.3467
vn 0.7286 -0.5637 0.3891
vn -0.0666 0.1670 0.9837
vn -0.8756 -0.4341 0.2118
vn 0.5080 -0.4575 -0.7299
vn -0.4328 0.6191 0.6552
vn -0.6540 0.2610 0.7100
vn 0.6764 0.4543 -0.5797
vn -0.8982 -0.3145 -0.3073
vn -0.0999 -0.8357 0.5400
vn -0.7349 -0.4721 0.4869
vn -0.8497 -0.1682 0.4997
vn 0.3598 0.8202 0.4448
vn 0.0838 0.1284 -0.9882
vn -0.2637 -0.2958 0.9181
vn -0.8095 0.5545 -0.1931
vn -0.4376 0.8672 0.2375
vn 0.4881 0.2744 -0.8285
vn 0.8567 0.5155 -0.0171
vn 0.4651 -0.1801 0.8668
vn -0.5252 -0.3194 0.7888
vn -0.7566 -0.3302 -0.5643
vn -0.4250 0.2054 -0.8816
vn -0.1676 0.3303 0.9289
vn -0.8215 -0.4979 0.2779
vn 0.4728 -0.8651 0.1677
vn 0.7669 0.3851 0.5134
vn 0.1329 -0.3219 -0.9374
vn -0.3136 0.6677 -0.6751
vn 0.7000 0.4707 -0.5371
vn -0.4465 -0.6426 -0.6227
vn -0.7179 0.4256 0.5509
vn -0.2695 -0.6426 0.7172
vn -0.1282 0.6677 0.7333
vn -0.8360 0.4256 -0.3463
vn 0.8151 0.4707 0.3376
vn 0.6796 -0.5582 0.4761
vn 0.7083 -0.4931 -0.5051
vn 0.8409 0.5272 -0.1226
vn 0.6148 0.7430 0.2645
vn -0.8618 -0.4935 -0.1174
vn -0.7914 0.4415 0.4229
vn -0.1437 -0.4931 -0.8580
vn 0.2606 0.4415 0.8586
vn -0.6217 0.7430 -0.2477
vn -0.8176 -0.5574 -0.1442
vn 0.7745 -0.4164 0.4762
vn -0.5160 0.6260 -0.5847
vn 0.5709 0.6677 0.4777
vn 0.4859 -0.6425 0.5925
vn -0.7415 0.6677 -0.0659
vn 0.1181 0.4255 0.8972
vn -0.1151 0.4707 -0.8747
vn -0.7625 -0.6426 0.0754
vn 0.6206 -0.4345 0.6527
vn 0.5267 0.8260 0.2009
vn 0.8852 0.1668 -0.4344
vn -0.9007 -0.4338 0.0221
vn -0.5062 0.8333 -0.2224
vn -0.3191 0.1672 -0.9329
vn 0.6013 -0.5652 -0.5648
vn -0.0387 -0.5464 -0.8366
vn 0.8554 0.2611 -0.4474
vn 0.5474 -0.8357 0.0434
vn -0.0643 -0.3145 -0.9471
vn 0.7024 -0.1681 -0.6917
vn 0.3365 0.8202 0.4627
vn -0.9762 0.2131 -0.0403
vn 0.9653 -0.2539 0.0603
vn 0.0231 0.5545 -0.8318
vn -0.2758 0.6250 -0.7302
vn 0.9755 0.2131 0.0552
vn -0.4601 -0.3194 -0.8284
vn 0.7018 -0.4253 -0.5715
vn 0.7188 0.2131 0.6617
vn -0.7252 -0.2539 -0.6400
vn 0.3198 -0.9218 0.2192
vn -0.8151 -0.2469 0.5240
vn -0.6065 0.6455 -0.4642
vn -0.1585 0.3019 0.9401
vn -0.7497 -0.3013 0.5892
vn -0.7484 -0.3623 -0.5556
vn -0.8308 -0.5485 -0.0939
vn 0.8345 0.5316 0.1449
vn 0.0553 0.8984 0.4358
vn -0.0929 -0.8722 -0.4802
vn 0.6186 0.1394 -0.7733
vn 0.4211 -0.8802 0.2188
vn 0.2187 -0.1888 -0.9574
vn 0.7042 0.2814 0.6519
vn 0.8256 -0.4254 0.3706
vn 0.5230 0.2130 -0.8253
vn 0.2522 -0.9218 -0.2945
vn -0.5350 -0.2540 0.8058
vn -0.2296 -0.3197 0.9193
vn -0.0771 0.6247 0.7771
vn 0.9280 0.2133 -0.3055
vn -0.9230 -0.2469 -0.2952
vn -0.0077 -0.1681 -0.9857
vn -0.5651 0.8202 0.0892
vn 0.5719 0.5545 -0.6045
vn -0.2884 0.2611 -0.9212
vn 0.7152 -0.3145 -0.6242
vn -0.4178 -0.8357 -0.3564
vn -0.0464 -0.2469 -0.9679
vn -0.9325 0.2129 0.2919
vn -0.3502 -0.9216 0.1675
vn 0.9168 -0.2543 -0.3078
vn 0.7703 0.6250 0.1264
vn -0.5357 0.2129 0.8171
vn 0.9476 -0.3192 0.0156
vn 0.1435 -0.4250 0.8937
vn 0.2476 -0.1681 0.9542
vn -0.5689 0.8202 0.0601
vn 0.7089 0.5545 0.4359
vn -0.0399 0.2612 0.9645
vn -0.3112 -0.8357 0.4524
vn 0.8524 -0.3145 0.4178
vn -0.0926 -0.4250 -0.9004
vn -0.3811 -0.9218 -0.0711
vn 0.9110 -0.3199 -0.2603
vn 0.7114 0.6249 -0.3215
vn -0.7288 0.2135 -0.6506
vn 0.2058 -0.2469 0.9469
vn 0.8575 -0.1681 0.4863
vn 0.2053 0.8202 -0.5340
vn 0.2374 0.5541 0.7979
vn 0.9420 0.2611 0.2110
vn 0.1829 -0.3145 0.9315
vn 0.5176 -0.8357 -0.1835
vn 0.6620 -0.6165 -0.4263
vn -0.1521 0.2882 0.9454
vn -0.0060 0.5377 0.8431
vn -0.7180 -0.3349 -0.6102
vn -0.7370 -0.3632 0.5700
vn -0.5334 0.8014 -0.2706
vn -0.8037 -0.5724 -0.1625
vn 0.0444 0.8566 0.5140
vn 0.1002 -0.2184 -0.9707
vn 0.9827 -0.0840 0.1649
vn -0.1609 -0.3285 0.9307
vn -0.0581 0.8596 0.5077
vn 0.2780 0.9373 -0.2101
vn 0.3989 -0.7404 -0.5410
vn 0.3049 -0.6023 0.7377
vn 0.0295 0.4415 -0.8968
vn -0.8689 -0.0270 -0.4942
vn 0.0832 -0.4931 0.8660
vn 0.8078 -0.0053 -0.5894
vn -0.3437 -0.3173 0.8838
vn 0.9019 0.3157 -0.2949
vn -0.4949 0.6247 0.6040
vn -0.4400 0.2132 -0.8723
vn -0.1619 0.8567 -0.4897
vn -0.4875 -0.3196 0.8125
vn -0.8459 -0.4254 -0.3217
vn 0.0299 -0.9218 -0.3865
vn 0.8614 -0.2469 0.4439
vn -0.7034 -0.6109 0.3634
vn 0.6541 0.7147 -0.2478
vn -0.7165 -0.5536 0.4244
vn 0.2517 -0.2273 0.9407
vn 0.0149 0.8977 -0.4404
vn -0.8616 -0.0992 -0.4979
vn -0.5731 -0.2681 0.7744
vn -0.2357 0.8630 0.4468
vn -0.4805 0.2685 -0.8348
vn -0.2932 0.3238 -0.8995
vn -0.5891 0.4708 -0.6567
vn -0.2141 -0.7898 0.5748
vn -0.7774 -0.6203 -0.1043
vn -0.3065 0.5863 0.7499
vn 0.0683 0.9384 0.3388
vn 0.6005 0.3519 -0.7180
vn 0.7585 -0.1809 0.6260
vn 0.5792 0.2050 -0.7890
vn 0.5085 -0.2944 -0.8092
vn -0.4814 -0.6954 0.5335
vn 0.7634 0.4397 0.4733
vn -0.7951 -0.4882 -0.3598
vn -0.2681 -0.7083 0.6530
vn 0.1043 -0.9072 -0.4076
vn -0.8915 -0.3924 0.2263
vn -0.8133 0.5762 0.0813
vn 0.0842 0.5038 -0.8597
vn -0.9665 0.2506 0.0562
vn -0.3892 -0.3248 -0.8620
vn -0.5531 0.7500 -0.3627
vn -0.9052 0.4039 0.1324
vn -0.8086 -0.5878 -0.0245
vn 0.9054 0.4230 0.0361
vn -0.1933 0.9226 0.3339
vn -0.1736 -0.7531 -0.6345
vn 0.9326 0.1096 -0.3438
vn 0.3114 -0.8770 -0.3660
vn -0.8875 -0.4602 0.0243
vn -0.5602 0.8174 -0.1342
vn -0.3269 0.8561 0.4003
vn -0.3351 0.7457 -0.5759
vn 0.7353 0.5110 0.4452
vn 0.7370 -0.1555 -0.6577
vn -0.5028 0.8239 -0.2614
vn 0.4510 -0.6736 0.5855
vn 0.7256 0.6118 -0.3151
vn -0.7105 0.3007 -0.6362
vn -0.1108 -0.3677 -0.9233
vn 0.8797 -0.3648 -0.3052
vn 0.5075 -0.6103 -0.6082
vn -0.5462 0.5878 0.5968
vn -0.3659 0.8970 -0.2482
vn 0.4199 -0.8777 0.2309
vn 0.3415 0.1919 0.9201
vn -0.4278 -0.8497 0.3083
vn 0.7110 -0.2087 0.6715
vn -0.9224 0.2903 0.2547
vn -0.6153 0.4458 -0.6501
vn -0.1890 -0.8551 -0.4828
vn -0.7718 -0.2840 0.5689
vn 0.7415 0.6677 0.0659
vn 0.1152 0.4707 0.8747
vn 0.7625 -0.6425 -0.0753
vn -0.1181 0.4256 -0.8972
vn -0.4862 -0.6426 -0.5922
vn -0.5710 0.6677 -0.4777
vn 0.7179 0.4256 -0.5509
vn -0.7000 0.4707 0.5371
vn 0.4140 -0.5358 -0.7359
vn -0.7109 0.4222 -0.5625
vn 0.3211 0.8505 -0.4166
vn 0.9503 0.0901 0.2978
vn 0.9329 -0.0053 0.3602
vn 0.4400 -0.5395 -0.7179
vn -0.5606 -0.3173 -0.7649
vn 0.9475 0.3157 0.0509
vn 0.3661 0.8424 -0.3953
vn -0.3961 -0.3284 -0.8575
vn -0.1206 0.5316 0.8383
vn 0.0799 -0.8248 0.5597
vn 0.4481 -0.5122 -0.7328
vn 0.3089 0.8705 -0.3831
vn 0.9001 -0.3517 -0.2572
vn -0.7617 0.2583 -0.5942
vn -0.4766 0.8424 0.2514
vn -0.7234 -0.3199 -0.6118
vn -0.2012 0.3035 0.9313
vn -0.8102 -0.5425 0.2219
vn -0.4043 -0.1994 -0.8926
vn 0.2298 0.0485 0.9720
vn 0.0189 -0.9963 0.0844
vn 0.9944 0.0297 0.1011
vn -0.4520 -0.8249 0.3394
vn 0.2013 -0.5122 -0.8350
vn -0.5075 0.5316 0.6781
vn 0.0206 0.8424 -0.5384
vn 0.8864 -0.3284 -0.3263
vn -0.7060 0.3156 -0.6340
vn 0.1965 -0.5395 -0.8188
vn 0.9373 -0.3173 -0.1444
vn -0.9143 -0.0053 -0.4050
vn 0.2276 -0.5358 -0.8131
vn 0.9308 0.3389 0.1370
vn -0.8582 0.1846 -0.4790
vn 0.0675 0.8505 -0.5217
vn 0.0524 0.8705 -0.4893
vn -0.4636 -0.2659 -0.8452
vn 0.9787 0.1755 0.1065
vn 0.4601 -0.6535 -0.6010
vn 0.3909 -0.2981 0.8708
vn 0.8786 0.2923 0.3777
vn 0.5882 0.3597 -0.7243
vn 0.7894 0.5340 -0.3027
vn -0.7796 -0.5153 0.3560
vn 0.0485 -0.8961 0.4411
vn -0.0278 0.8683 -0.4953
vn -0.7976 -0.1340 -0.5881
vn -0.3401 0.8863 0.3143
vn -0.4585 0.1820 -0.8698
vn -0.5167 -0.2782 0.8097
vn -0.7960 -0.5189 0.3116
vn 0.4568 -0.6160 -0.6418
vn -0.3797 -0.0607 -0.9231
vn -0.2881 0.9492 -0.1269
vn -0.4786 0.6111 0.6305
vn 0.7186 -0.3214 0.6167
vn 0.3596 -0.9035 0.2333
vn -0.8573 0.3891 0.3370
vn 0.1990 0.3258 0.9243
vn 0.5134 0.8345 -0.2001
vn -0.7010 0.3496 -0.6216
vn 0.8711 -0.3532 -0.3413
vn -0.8860 0.3098 0.3450
vn 0.7247 -0.6631 0.1873
vn -0.2809 0.1826 -0.9422
vn 0.0448 0.0973 0.9942
vn 0.5686 0.8133 -0.1235
vn 0.8778 -0.2477 0.4099
vn -0.3979 0.1726 -0.9010
vn -0.5003 -0.2645 0.8244
vn -0.4550 0.8712 0.1843
vn -0.7373 -0.6433 0.2065
vn 0.0962 0.8875 0.4506
vn 0.2583 -0.9425 0.2119
vn -0.9734 -0.2055 0.1014
vn -0.0235 -0.6382 0.7695
vn -0.8404 0.5183 0.1582
vn 0.5800 0.8141 0.0291
vn 0.4303 -0.5359 0.7264
vn 0.8426 0.4223 -0.3343
vn 0.1999 0.8511 0.4854
vn -0.7331 0.0900 0.6741
vn -0.7783 -0.0053 0.6278
vn 0.4017 -0.5394 0.7400
vn 0.9427 -0.3173 -0.1031
vn -0.5179 0.3157 0.7951
vn 0.1592 0.8422 0.5152
vn 0.9406 -0.3284 0.0858
vn -0.6654 0.5317 -0.5240
vn -0.5243 -0.8250 -0.2109
vn 0.4111 -0.5124 0.7540
vn 0.1768 0.8704 0.4595
vn -0.2151 -0.3383 0.9161
vn 0.9042 0.2480 -0.3478
vn -0.0680 -0.8250 -0.5610
vn 0.6226 -0.5116 0.5922
vn -0.3334 0.5316 -0.7786
vn 0.4560 0.8424 0.2870
vn 0.6108 -0.5395 0.5795
vn 0.5898 -0.5359 0.6042
vn -0.5841 0.3389 0.7375
vn 0.8439 0.1846 -0.5037
vn 0.4180 0.8505 0.3193
vn 0.3976 0.8705 0.2901
vn 0.9638 -0.2659 0.0211
vn -0.5816 0.1755 0.7943
vn -0.2606 0.4785 0.8386
vn -0.3330 -0.9038 0.2687
vn -0.9623 -0.2563 -0.0907
vn 0.2030 0.9446 -0.2580
vn 0.6981 -0.5153 0.4972
vn 0.3720 -0.5512 0.7469
vn 0.8598 0.5080 -0.0511
vn -0.4151 0.8683 0.2717
vn 0.3578 -0.8961 -0.2625
vn 0.1486 -0.2264 -0.9626
vn -0.6569 0.5340 -0.5323
vn -0.3666 0.5475 -0.7522
vn 0.4278 0.6677 -0.6092
vn 0.3165 -0.6426 -0.6977
vn -0.7560 -0.6426 0.1246
vn -0.6992 0.6677 0.2556
vn 0.8708 0.4870 0.0676
vn -0.0085 0.0736 -0.9972
vn -0.9610 0.0737 -0.2665
vn -0.1599 0.4865 0.8589
vn -0.7517 -0.5589 0.3502
vn -0.5365 0.7430 0.4002
vn 0.8149 -0.4931 0.3045
vn 0.5254 0.7430 -0.4146
vn -0.8739 0.4415 -0.2037
vn 0.5332 -0.5582 -0.6357
vn 0.4682 -0.4751 0.7450
vn 0.5178 0.8522 0.0746
vn 0.9184 0.1192 -0.3772
vn -0.4919 -0.8620 -0.1223
vn -0.8655 -0.4559 0.2076
vn -0.0189 0.5874 0.8091
vn -0.3897 0.1402 -0.9102
vn 0.0309 -0.6043 -0.7962
vn 0.1282 0.6677 -0.7333
vn 0.2701 -0.6426 -0.7170
vn 0.8360 0.4256 0.3463
vn 0.3136 0.6677 0.6751
vn -0.8151 0.4707 -0.3377
vn 0.4462 -0.6426 0.6229
vn 0.1735 0.4294 0.8863
vn -0.3848 -0.9204 0.0690
vn 0.6814 -0.3850 -0.6225
vn 0.6691 -0.2409 -0.7030
vn -0.5013 -0.6099 0.6137
vn 0.2050 0.6252 0.7530
vn 0.1997 -0.8090 0.5528
vn 0.5008 0.7425 -0.4449
vn -0.1288 -0.3705 -0.9199
vn 0.1423 -0.3481 0.9266
vn -0.5256 0.8123 0.2528
vn 0.6414 0.6032 -0.4742
vn -0.6341 -0.0840 0.7686
vn -0.4004 0.8709 -0.2850
vn 0.2662 -0.7374 0.6208
vn 0.8756 0.0134 -0.4828
vn 0.5253 -0.7404 0.4194
vn 0.1036 -0.6023 -0.7915
vn 0.9066 -0.0840 -0.4136
vn 0.3229 0.9373 0.1309
vn -0.1867 0.8597 -0.4754
vn -0.7114 -0.0270 0.7022
vn -0.7357 -0.2678 0.6221
vn 0.1929 0.8123 0.5505
vn -0.1182 0.6032 -0.7888
vn -0.7493 0.4294 0.5041
vn -0.0615 -0.3667 -0.9283
vn 0.2233 -0.9204 0.3208
vn 0.0465 -0.0934 -0.9945
vn 0.0333 -0.6153 0.7876
vn -0.6809 0.6078 0.4086
vn -0.4210 -0.6355 0.6473
vn -0.0966 0.8204 -0.5636
vn 0.7435 -0.3576 -0.5651
vn 0.8765 -0.2324 0.4215
vn -0.5131 0.6937 -0.5055
vn 0.4173 0.8091 -0.4138
vn -0.6219 0.5985 0.5050
vn 0.3946 -0.3454 0.8514
vn 0.8330 0.3510 0.4277
vn -0.7785 -0.3663 0.5098
vn 0.2635 -0.9183 -0.2954
vn -0.8491 -0.1175 0.5150
vn 0.6465 -0.6572 -0.3875
vn 0.6920 0.6077 0.3897
vn 0.0083 -0.8167 0.5770
vn -0.8676 -0.4274 -0.2543
vn -0.0895 0.8260 -0.5565
vn -0.7053 -0.5464 0.4517
vn -0.4401 0.8202 0.3655
vn -0.8542 0.4296 -0.2929
vn 0.1326 -0.9205 -0.3676
vn 0.1991 -0.3851 0.9011
vn 0.2446 -0.1091 0.9635
vn -0.7542 0.6258 -0.1988
vn -0.1719 -0.6154 -0.7693
vn -0.6205 -0.7842 0.0007
vn 0.8609 -0.3707 0.3485
vn 0.0526 0.8201 0.5697
vn -0.8739 -0.3475 -0.3398
vn 0.0439 0.8123 -0.5816
vn 0.0900 0.6032 0.7925
vn -0.3483 -0.0844 -0.9336
vn 0.4682 0.8597 -0.2043
vn -0.3208 0.9374 -0.1356
vn -0.6680 -0.7404 -0.0749
vn 0.4863 -0.6024 -0.6329
vn 0.0065 -0.0269 0.9996
vn -0.4650 0.8746 -0.1372
vn -0.8756 -0.4831 -0.0062
vn 0.8397 0.4911 -0.2319
vn 0.4060 -0.8787 -0.2512
vn -0.1715 -0.2684 -0.9479
vn -0.5732 0.8123 -0.1082
vn 0.7422 0.6032 0.2921
vn -0.0623 0.4295 -0.9009
vn 0.8342 -0.3670 0.4116
vn -0.3896 -0.9204 0.0330
vn 0.8381 -0.0930 0.5376
vn -0.6988 -0.6152 -0.3651
vn -0.0131 0.6084 -0.7935
vn -0.3508 -0.6356 -0.6877
vn 0.5366 0.8202 0.1982
vn 0.1179 -0.3578 0.9263
vn 0.3604 0.8512 -0.3816
vn -0.4671 -0.2873 -0.8362
vn 0.4380 -0.5233 -0.7309
vn 0.9791 0.2013 0.0304
vn -0.2051 0.5319 0.8216
vn -0.0130 -0.8564 0.5162
vn 0.3964 0.3630 0.8433
vn -0.9531 -0.2967 -0.0600
vn -0.0842 0.8573 -0.5080
vn 0.0423 -0.5709 -0.8199
vn 0.8937 -0.1849 -0.4087
vn 0.4636 0.8741 0.1449
vn -0.7349 0.3569 0.5767
vn 0.2891 -0.6207 0.7288
vn -0.0803 0.5952 0.7995
vn -0.4342 -0.8956 -0.0967
vn 0.1138 0.8746 0.4713
vn 0.2124 0.2814 -0.9358
vn 0.8934 0.3018 -0.3328
vn -0.9385 -0.1887 0.2892
vn -0.6207 0.4911 -0.6113
vn -0.4205 -0.8787 -0.2261
vn -0.9214 0.3597 -0.1473
vn 0.9596 -0.2782 0.0426
vn 0.5587 -0.2981 -0.7739
vn -0.5241 0.1820 0.8320
vn 0.4325 -0.4831 0.7613
vn -0.1070 -0.3623 0.9259
vn 0.4422 0.8863 0.1374
vn -0.1105 -0.1340 0.9848
vn -0.1122 0.2923 -0.9497
vn -0.7505 -0.6535 -0.0979
vn -0.0987 0.6455 0.7573
vn 0.8851 -0.3014 0.3547
vn 0.3341 -0.5485 0.7665
vn -0.2918 0.5316 -0.7952
vn 0.3498 0.8983 -0.2658
vn -0.3694 -0.8722 0.3206
vn -0.9790 0.1394 -0.1490
vn -0.0211 -0.8802 -0.4741
vn 0.3692 -0.5158 -0.7731
vn -0.1103 0.8561 -0.5049
vn -0.7702 0.1926 -0.6080
vn 0.0621 -0.8575 0.5108
vn 0.5723 -0.4981 0.6514
vn 0.7607 0.5318 -0.3722
vn -0.5763 0.2121 0.7892
vn -0.7654 -0.5469 0.3392
vn 0.5812 -0.3775 0.7209
vn -0.6345 0.1871 0.7499
vn -0.8188 0.1668 -0.5494
vn 0.3445 -0.4124 -0.8434
vn 0.3570 -0.8981 -0.2570
vn -0.8637 -0.3853 -0.3248
vn 0.8209 0.1827 0.5411
vn -0.4554 0.6491 0.6093
vn 0.7553 0.6492 0.0894
vn -0.7020 0.5324 -0.4730
vn 0.0576 0.1818 -0.9817
vn 0.4106 -0.8581 -0.3084
vn 0.6764 -0.5472 0.4931
vn -0.5510 0.2054 0.8089
vn -0.3822 0.8561 0.3478
vn 0.9457 -0.3194 0.0604
vn 0.1505 -0.3853 0.9104
vn -0.4011 -0.8981 -0.1806
vn 0.5181 -0.1801 -0.8361
vn -0.9616 0.2744 -0.0085
vn 0.4245 0.8672 0.2603
vn -0.4432 0.5155 -0.7334
vn -0.1103 -0.3302 0.9374
vn 0.8882 0.3303 -0.3193
vn 0.6515 -0.4979 0.5724
vn -0.0913 -0.8651 -0.4933
vn 0.0611 0.3851 -0.9208
vn -0.8782 -0.3219 0.3536
vn -0.8546 -0.5149 0.0670
vn -0.1411 0.1926 0.9711
vn 0.2780 -0.4981 -0.8213
vn 0.9716 0.2121 0.1045
vn 0.0267 -0.8652 0.5007
vn 0.9770 0.2089 0.0426
vn 0.6797 -0.4442 -0.5837
vn -0.4776 -0.3119 -0.8213
vn -0.9794 -0.2008 -0.0226
vn 0.4964 0.2814 0.8212
vn -0.8620 0.2362 0.4485
vn -0.2972 0.6230 -0.7235
vn -0.3624 0.8614 -0.3560
vn 0.7014 0.2604 -0.6635
vn -0.5947 0.0010 0.8040
vn 0.1219 0.9446 0.3049
vn 0.6486 -0.5529 0.5230
vn -0.8328 -0.5512 -0.0513
vn 0.8347 0.5475 0.0587
vn -0.0662 -0.9038 -0.4228
vn -0.1271 0.8613 0.4919
vn -0.9253 0.2604 -0.2756
vn 0.9936 0.0010 0.1131
vn 0.1286 -0.5529 -0.8232
vn -0.3902 -0.8407 0.3753
vn 0.1568 -0.5399 -0.8270
vn -0.4080 0.5573 0.7231
vn 0.0430 0.8417 -0.5382
vn -0.6258 -0.7404 0.2452
vn 0.6337 -0.6023 0.4855
vn -0.0950 -0.0840 0.9919
vn -0.2749 0.9373 0.2142
vn 0.5051 0.8597 0.0760
vn -0.2525 -0.0270 -0.9672
vn 0.5597 -0.2562 -0.7881
vn 0.7594 -0.2265 0.6100
vn -0.5959 0.4785 -0.6450
vn -0.3857 0.5080 0.7702
vn 0.8814 0.4723 0.0062
vn -0.2222 0.4723 0.8530
vn 0.1988 -0.3081 -0.9304
vn -0.9501 -0.3081 -0.0488
vn -0.4354 0.4723 -0.7664
vn 0.8498 0.4723 -0.2341
vn -0.9051 -0.3081 0.2930
vn 0.4328 -0.3081 0.8472
vn 0.7028 0.7021 -0.1150
vn 0.7141 -0.6553 -0.2461
vn -0.3307 -0.6553 -0.6791
vn -0.4154 0.7022 -0.5783
vn 0.8236 0.4870 -0.2907
vn 0.2498 0.0737 0.9655
vn -0.3970 0.3856 -0.8329
vn -0.8468 0.0439 0.5302
vn 0.8475 0.0714 0.5260
vn 0.7112 0.0736 -0.6991
vn -0.6635 0.4870 -0.5680
vn -0.5219 0.3849 0.7613
vn -0.2515 0.7022 0.6660
vn -0.1437 -0.6554 0.7415
vn 0.7534 -0.6554 0.0532
vn 0.7085 0.7022 -0.0706
vn -0.7780 0.1407 -0.6123
vn 0.3171 -0.6118 -0.7246
vn 0.1591 -0.4130 0.8967
vn -0.4780 0.1760 0.8606
vn 0.6992 0.6677 -0.2555
vn 0.7560 -0.6426 -0.1246
vn -0.4279 0.6677 0.6091
vn -0.3160 -0.6426 0.6980
vn 0.2057 -0.6173 0.7594
vn 0.1511 0.7291 0.6675
vn 0.0200 -0.6073 -0.7942
vn -0.0476 0.7308 -0.6809
vn 0.8710 0.4349 -0.2285
vn -0.4586 0.4662 -0.7565
vn -0.9158 -0.1561 0.3700
vn 0.3948 -0.1877 0.8994
vn 0.9116 0.3486 0.2177
vn -0.7988 0.3485 -0.4904
vn 0.3819 0.0652 -0.9219
vn 0.7991 0.3484 0.4900
vn -0.3817 0.0652 0.9220
vn -0.9117 0.3486 -0.2175
vn -0.4501 0.6900 -0.5669
vn -0.5703 -0.6554 -0.4952
vn -0.4484 -0.6539 0.6094
vn 0.0072 0.9016 0.4325
vt 0.000000 0.000000
s 1
f 320/1/1 5/1/2 319/1/3
f 320/1/1 6/1/4 2/1/5
f 321/1/6 1/1/7 320/1/1
f 321/1/6 2/1/5 4/1/8
f 321/1/6 5/1/2 3/1/9
f 321/1/6 6/1/4 319/1/3
f 322/1/10 315/1/11 1/1/7
f 322/1/10 316/1/12 323/1/13
f 324/1/14 315/1/11 323/1/13
f 324/1/14 316/1/12 4/1/8
f 324/1/14 1/1/7 3/1/9
f 324/1/14 2/1/5 322/1/10
f 325/1/15 5/1/2 317/1/16
f 325/1/15 6/1/4 326/1/17
f 327/1/18 5/1/2 326/1/17
f 327/1/18 6/1/4 4/1/8
f 327/1/18 317/1/16 3/1/9
f 327/1/18 318/1/19 325/1/15
f 329/1/20 315/1/11 328/1/21
f 329/1/20 316/1/12 318/1/19
f 330/1/22 317/1/16 329/1/20
f 330/1/22 318/1/19 4/1/8
f 330/1/22 315/1/11 3/1/9
f 330/1/22 316/1/12 328/1/21
f 331/1/23 7/1/24 163/1/25
f 331/1/23 8/1/26 332/1/27
f 333/1/28 7/1/24 332/1/27
f 333/1/28 8/1/26 10/1/9
f 333/1/28 163/1/25 9/1/8
f 333/1/28 164/1/29 331/1/23
f 335/1/30 7/1/24 334/1/31
f 335/1/30 8/1/26 170/1/32
f 336/1/33 169/1/34 335/1/30
f 336/1/33 170/1/32 10/1/9
f 336/1/33 7/1/24 9/1/8
f 336/1/33 8/1/26 334/1/31
f 338/1/35 155/1/36 337/1/37
f 338/1/35 156/1/38 164/1/29
f 339/1/39 163/1/25 338/1/35
f 339/1/39 164/1/29 10/1/9
f 339/1/39 155/1/36 9/1/8
f 339/1/39 156/1/38 337/1/37
f 341/1/40 169/1/34 340/1/41
f 341/1/40 170/1/32 12/1/42
f 342/1/43 11/1/44 341/1/40
f 342/1/43 12/1/42 10/1/9
f 342/1/43 169/1/34 9/1/8
f 342/1/43 170/1/32 340/1/41
f 343/1/45 155/1/36 157/1/46
f 343/1/45 156/1/38 344/1/47
f 345/1/48 155/1/36 344/1/47
f 345/1/48 156/1/38 10/1/9
f 345/1/48 157/1/46 9/1/8
f 345/1/48 158/1/49 343/1/45
f 347/1/50 11/1/44 346/1/51
f 347/1/50 12/1/42 158/1/49
f 348/1/52 157/1/46 347/1/50
f 348/1/52 158/1/49 10/1/9
f 348/1/52 11/1/44 9/1/8
f 348/1/52 12/1/42 346/1/51
f 349/1/53 51/1/54 53/1/55
f 350/1/56 54/1/57 52/1/58
f 350/1/56 47/1/59 51/1/54
f 351/1/60 52/1/58 48/1/61
f 352/1/62 47/1/59 351/1/60
f 351/1/60 50/1/63 352/1/62
f 349/1/53 49/1/64 352/1/62
f 352/1/62 54/1/57 349/1/53
f 353/1/65 103/1/66 13/1/67
f 353/1/65 104/1/68 354/1/69
f 355/1/70 103/1/66 354/1/69
f 355/1/70 104/1/68 60/1/71
f 353/1/65 59/1/72 355/1/70
f 353/1/65 60/1/71 14/1/73
f 356/1/74 13/1/67 103/1/66
f 356/1/74 14/1/73 357/1/75
f 357/1/75 15/1/76 13/1/67
f 358/1/77 14/1/73 16/1/78
f 356/1/74 15/1/76 358/1/77
f 356/1/74 16/1/78 104/1/68
f 359/1/79 71/1/80 69/1/81
f 360/1/82 70/1/83 72/1/84
f 361/1/85 71/1/80 360/1/82
f 360/1/82 56/1/86 361/1/85
f 362/1/87 55/1/88 361/1/85
f 361/1/85 58/1/89 362/1/87
f 362/1/87 69/1/81 57/1/90
f 359/1/79 58/1/89 70/1/83
f 363/1/91 109/1/92 113/1/93
f 363/1/91 110/1/94 364/1/95
f 365/1/96 109/1/92 364/1/95
f 364/1/95 18/1/97 365/1/96
f 363/1/91 17/1/98 365/1/96
f 363/1/91 18/1/97 114/1/99
f 367/1/100 113/1/93 366/1/101
f 367/1/100 114/1/99 18/1/97
f 367/1/100 19/1/102 17/1/98
f 367/1/100 20/1/103 368/1/104
f 368/1/104 113/1/93 19/1/102
f 368/1/104 114/1/99 366/1/101
f 369/1/105 23/1/106 21/1/107
f 369/1/105 24/1/108 370/1/109
f 370/1/109 149/1/110 23/1/106
f 370/1/109 150/1/111 371/1/112
f 369/1/105 149/1/110 371/1/112
f 369/1/105 150/1/111 22/1/113
f 372/1/114 145/1/115 149/1/110
f 372/1/114 146/1/116 373/1/117
f 374/1/118 145/1/115 373/1/117
f 373/1/117 22/1/113 374/1/118
f 372/1/114 21/1/107 374/1/118
f 372/1/114 22/1/113 150/1/111
f 375/1/119 127/1/120 39/1/121
f 375/1/119 128/1/122 376/1/123
f 377/1/124 127/1/120 376/1/123
f 376/1/123 26/1/125 377/1/124
f 375/1/119 25/1/126 377/1/124
f 375/1/119 26/1/125 40/1/127
f 379/1/128 39/1/121 378/1/129
f 379/1/128 40/1/127 26/1/125
f 379/1/128 41/1/130 25/1/126
f 379/1/128 42/1/131 380/1/132
f 380/1/132 39/1/121 41/1/130
f 380/1/132 40/1/127 378/1/129
f 381/1/133 137/1/134 27/1/135
f 381/1/133 138/1/136 382/1/137
f 383/1/138 137/1/134 382/1/137
f 383/1/138 138/1/136 30/1/139
f 381/1/133 29/1/140 383/1/138
f 381/1/133 30/1/139 28/1/141
f 384/1/142 27/1/135 137/1/134
f 384/1/142 28/1/141 385/1/143
f 385/1/143 139/1/144 27/1/135
f 386/1/145 28/1/141 140/1/146
f 384/1/142 139/1/144 386/1/145
f 384/1/142 140/1/146 138/1/136
f 387/1/147 305/1/148 195/1/149
f 388/1/150 196/1/151 306/1/152
f 388/1/150 303/1/153 305/1/148
f 388/1/150 304/1/154 389/1/155
f 390/1/156 303/1/153 389/1/155
f 389/1/155 202/1/157 390/1/156
f 387/1/147 201/1/158 390/1/156
f 387/1/147 202/1/157 196/1/151
f 391/1/159 39/1/121 37/1/160
f 391/1/159 40/1/127 392/1/161
f 393/1/162 39/1/121 392/1/161
f 393/1/162 40/1/127 42/1/131
f 391/1/159 41/1/130 393/1/162
f 391/1/159 42/1/131 38/1/163
f 394/1/164 37/1/160 39/1/121
f 394/1/164 38/1/163 395/1/165
f 395/1/165 67/1/166 37/1/160
f 395/1/165 68/1/167 396/1/168
f 394/1/164 67/1/166 396/1/168
f 394/1/164 68/1/167 40/1/127
f 398/1/169 247/1/170 397/1/171
f 398/1/169 248/1/172 244/1/173
f 398/1/169 245/1/174 243/1/175
f 398/1/169 246/1/176 399/1/177
f 400/1/178 245/1/174 399/1/177
f 400/1/178 246/1/176 242/1/179
f 400/1/178 247/1/170 241/1/180
f 400/1/178 248/1/172 397/1/171
f 401/1/181 169/1/34 171/1/182
f 402/1/183 172/1/184 170/1/32
f 403/1/185 169/1/34 402/1/183
f 403/1/185 170/1/32 8/1/26
f 404/1/186 7/1/24 403/1/185
f 403/1/185 166/1/187 404/1/186
f 404/1/186 171/1/182 165/1/188
f 404/1/186 172/1/184 401/1/181
f 405/1/189 179/1/190 285/1/191
f 406/1/192 286/1/193 180/1/194
f 406/1/192 175/1/195 179/1/190
f 406/1/192 176/1/196 407/1/197
f 408/1/198 175/1/195 407/1/197
f 407/1/197 282/1/199 408/1/198
f 405/1/189 281/1/200 408/1/198
f 408/1/198 286/1/193 405/1/189
f 410/1/201 169/1/34 409/1/202
f 409/1/202 172/1/184 410/1/201
f 411/1/203 171/1/182 410/1/201
f 410/1/201 168/1/204 411/1/203
f 411/1/203 11/1/44 167/1/205
f 412/1/206 168/1/204 12/1/42
f 412/1/206 169/1/34 11/1/44
f 412/1/206 170/1/32 409/1/202
f 414/1/207 287/1/208 413/1/209
f 413/1/209 286/1/193 414/1/207
f 415/1/210 285/1/191 414/1/207
f 414/1/207 282/1/199 415/1/210
f 415/1/210 283/1/211 281/1/200
f 416/1/212 282/1/199 284/1/213
f 416/1/212 287/1/208 283/1/211
f 416/1/212 288/1/214 413/1/209
f 417/1/215 59/1/72 55/1/88
f 417/1/215 60/1/71 418/1/216
f 418/1/216 103/1/66 59/1/72
f 418/1/216 104/1/68 419/1/217
f 417/1/215 103/1/66 419/1/217
f 417/1/215 104/1/68 56/1/86
f 421/1/218 55/1/88 420/1/219
f 421/1/218 56/1/86 104/1/68
f 421/1/218 61/1/220 103/1/66
f 421/1/218 62/1/221 422/1/222
f 420/1/219 61/1/220 422/1/222
f 420/1/219 62/1/221 56/1/86
f 423/1/223 73/1/224 69/1/81
f 423/1/223 74/1/225 424/1/226
f 424/1/226 115/1/227 73/1/224
f 424/1/226 116/1/228 425/1/229
f 426/1/230 115/1/227 425/1/229
f 426/1/230 116/1/228 72/1/84
f 423/1/223 71/1/80 426/1/230
f 426/1/230 70/1/83 423/1/223
f 428/1/231 223/1/232 427/1/233
f 428/1/231 224/1/234 232/1/235
f 428/1/231 227/1/236 231/1/237
f 428/1/231 228/1/238 429/1/239
f 430/1/240 227/1/236 429/1/239
f 430/1/240 228/1/238 222/1/241
f 430/1/240 223/1/232 221/1/242
f 430/1/240 224/1/234 427/1/233
f 432/1/243 135/1/244 431/1/245
f 432/1/243 136/1/246 142/1/247
f 433/1/248 141/1/249 432/1/243
f 433/1/248 142/1/247 50/1/63
f 433/1/248 47/1/59 49/1/64
f 434/1/250 50/1/63 48/1/61
f 434/1/250 135/1/244 47/1/59
f 434/1/250 136/1/246 431/1/245
f 435/1/251 71/1/80 113/1/93
f 435/1/251 72/1/84 436/1/252
f 436/1/252 115/1/227 71/1/80
f 436/1/252 116/1/228 437/1/253
f 435/1/251 115/1/227 437/1/253
f 435/1/251 116/1/228 114/1/99
f 438/1/254 113/1/93 71/1/80
f 438/1/254 114/1/99 439/1/255
f 440/1/256 113/1/93 439/1/255
f 440/1/256 114/1/99 20/1/103
f 438/1/254 19/1/102 440/1/256
f 438/1/254 20/1/103 72/1/84
f 442/1/257 75/1/258 441/1/259
f 442/1/257 76/1/260 52/1/58
f 443/1/261 51/1/54 442/1/257
f 442/1/257 54/1/57 443/1/261
f 443/1/261 77/1/262 53/1/55
f 443/1/261 78/1/263 444/1/264
f 444/1/264 75/1/258 77/1/262
f 444/1/264 76/1/260 441/1/259
f 446/1/265 47/1/59 445/1/266
f 446/1/265 48/1/61 138/1/136
f 446/1/265 135/1/244 137/1/134
f 446/1/265 136/1/246 447/1/267
f 445/1/266 135/1/244 447/1/267
f 445/1/266 136/1/246 48/1/61
f 448/1/268 29/1/140 47/1/59
f 448/1/268 30/1/139 449/1/269
f 449/1/269 137/1/134 29/1/140
f 449/1/269 138/1/136 450/1/270
f 448/1/268 137/1/134 450/1/270
f 448/1/268 138/1/136 48/1/61
f 452/1/271 61/1/220 451/1/272
f 452/1/271 62/1/221 108/1/273
f 453/1/274 107/1/275 452/1/271
f 453/1/274 108/1/273 58/1/89
f 453/1/274 55/1/88 57/1/90
f 454/1/276 58/1/89 56/1/86
f 454/1/276 61/1/220 55/1/88
f 454/1/276 62/1/221 451/1/272
f 455/1/277 51/1/54 149/1/110
f 455/1/277 52/1/58 456/1/278
f 456/1/278 75/1/258 51/1/54
f 456/1/278 76/1/260 457/1/279
f 455/1/277 75/1/258 457/1/279
f 455/1/277 76/1/260 150/1/111
f 458/1/280 149/1/110 51/1/54
f 458/1/280 150/1/111 459/1/281
f 460/1/282 149/1/110 459/1/281
f 460/1/282 150/1/111 24/1/108
f 458/1/280 23/1/106 460/1/282
f 458/1/280 24/1/108 52/1/58
f 461/1/283 79/1/284 299/1/285
f 461/1/283 80/1/286 462/1/287
f 463/1/288 79/1/284 462/1/287
f 463/1/288 80/1/286 82/1/289
f 461/1/283 81/1/290 463/1/288
f 461/1/283 82/1/289 300/1/291
f 465/1/292 199/1/293 464/1/294
f 464/1/294 312/1/295 465/1/292
f 466/1/296 311/1/297 465/1/292
f 465/1/292 310/1/298 466/1/296
f 467/1/299 309/1/300 466/1/296
f 467/1/299 310/1/298 152/1/301
f 467/1/299 199/1/293 151/1/302
f 467/1/299 200/1/303 464/1/294
f 468/1/304 131/1/305 97/1/306
f 468/1/304 132/1/307 469/1/308
f 469/1/308 67/1/166 131/1/305
f 469/1/308 68/1/167 470/1/309
f 471/1/310 67/1/166 470/1/309
f 471/1/310 68/1/167 38/1/163
f 468/1/304 37/1/160 471/1/310
f 471/1/310 98/1/311 468/1/304
f 472/1/312 93/1/313 91/1/314
f 472/1/312 94/1/315 473/1/316
f 473/1/316 83/1/317 93/1/313
f 474/1/318 94/1/315 84/1/319
f 472/1/312 83/1/317 474/1/318
f 472/1/312 84/1/319 92/1/320
f 475/1/321 297/1/322 293/1/323
f 476/1/324 294/1/325 298/1/326
f 477/1/327 297/1/322 476/1/324
f 476/1/324 296/1/328 477/1/327
f 478/1/329 295/1/330 477/1/327
f 477/1/327 184/1/331 478/1/329
f 478/1/329 293/1/323 183/1/332
f 475/1/321 184/1/331 294/1/325
f 480/1/333 295/1/330 479/1/334
f 480/1/333 296/1/328 298/1/326
f 480/1/333 85/1/335 297/1/322
f 481/1/336 298/1/326 86/1/337
f 482/1/338 85/1/335 481/1/336
f 482/1/338 86/1/337 88/1/339
f 483/1/340 87/1/341 482/1/338
f 483/1/340 88/1/339 90/1/342
f 483/1/340 95/1/343 89/1/344
f 483/1/340 96/1/345 484/1/346
f 485/1/347 95/1/343 484/1/346
f 485/1/347 96/1/345 92/1/320
f 485/1/347 83/1/317 91/1/314
f 485/1/347 84/1/319 486/1/348
f 487/1/349 83/1/317 486/1/348
f 487/1/349 84/1/319 80/1/286
f 487/1/349 299/1/285 79/1/284
f 487/1/349 300/1/291 488/1/350
f 479/1/334 299/1/285 488/1/350
f 479/1/334 300/1/291 296/1/328
f 489/1/351 91/1/314 93/1/313
f 489/1/351 92/1/320 490/1/352
f 491/1/353 91/1/314 490/1/352
f 491/1/353 92/1/320 100/1/354
f 489/1/351 99/1/355 491/1/353
f 489/1/351 100/1/354 94/1/315
f 493/1/356 125/1/357 492/1/358
f 493/1/356 126/1/359 216/1/360
f 493/1/356 211/1/361 215/1/362
f 493/1/356 212/1/363 494/1/364
f 495/1/365 211/1/361 494/1/364
f 495/1/365 212/1/363 214/1/366
f 495/1/365 125/1/357 213/1/367
f 495/1/365 126/1/359 492/1/358
f 496/1/368 99/1/355 95/1/343
f 496/1/368 100/1/354 497/1/369
f 497/1/369 91/1/314 99/1/355
f 497/1/369 92/1/320 498/1/370
f 496/1/368 91/1/314 498/1/370
f 496/1/368 92/1/320 96/1/345
f 499/1/371 163/1/25 159/1/372
f 500/1/373 160/1/374 164/1/29
f 500/1/373 155/1/36 163/1/25
f 500/1/373 156/1/38 501/1/375
f 502/1/376 155/1/36 501/1/375
f 501/1/375 154/1/377 502/1/376
f 499/1/371 153/1/378 502/1/376
f 499/1/371 154/1/377 160/1/374
f 504/1/379 101/1/380 503/1/381
f 504/1/379 102/1/382 174/1/383
f 505/1/384 173/1/385 504/1/379
f 505/1/384 174/1/383 178/1/386
f 506/1/387 177/1/388 505/1/384
f 506/1/387 178/1/386 108/1/273
f 506/1/387 61/1/220 107/1/275
f 506/1/387 62/1/221 507/1/389
f 508/1/390 61/1/220 507/1/389
f 508/1/390 62/1/221 104/1/68
f 508/1/390 15/1/76 103/1/66
f 508/1/390 16/1/78 509/1/391
f 510/1/392 15/1/76 509/1/391
f 510/1/392 16/1/78 106/1/393
f 510/1/392 101/1/380 105/1/394
f 510/1/392 102/1/382 503/1/381
f 511/1/395 133/1/396 131/1/305
f 511/1/395 134/1/397 512/1/398
f 512/1/398 129/1/399 133/1/396
f 512/1/398 130/1/400 513/1/401
f 514/1/402 129/1/399 513/1/401
f 514/1/402 130/1/400 68/1/167
f 514/1/402 131/1/305 67/1/166
f 514/1/402 132/1/307 511/1/395
f 516/1/403 109/1/92 515/1/404
f 516/1/403 110/1/94 114/1/99
f 516/1/403 115/1/227 113/1/93
f 516/1/403 116/1/228 517/1/405
f 518/1/406 115/1/227 517/1/405
f 518/1/406 116/1/228 74/1/225
f 518/1/406 119/1/407 73/1/224
f 518/1/406 120/1/408 519/1/409
f 519/1/409 117/1/410 119/1/407
f 519/1/409 118/1/411 520/1/412
f 520/1/412 181/1/413 117/1/410
f 520/1/412 182/1/414 521/1/415
f 522/1/416 181/1/413 521/1/415
f 522/1/416 182/1/414 112/1/417
f 522/1/416 109/1/92 111/1/418
f 522/1/416 110/1/94 515/1/404
f 524/1/419 217/1/420 523/1/421
f 524/1/419 218/1/422 230/1/423
f 524/1/419 225/1/424 229/1/425
f 524/1/419 226/1/426 525/1/427
f 526/1/428 225/1/424 525/1/427
f 526/1/428 226/1/426 220/1/429
f 526/1/428 217/1/420 219/1/430
f 526/1/428 218/1/422 523/1/421
f 528/1/431 45/1/432 527/1/433
f 528/1/431 46/1/434 34/1/435
f 528/1/431 123/1/436 33/1/437
f 528/1/431 124/1/438 529/1/439
f 530/1/440 123/1/436 529/1/439
f 530/1/440 124/1/438 44/1/441
f 527/1/433 43/1/442 530/1/440
f 530/1/440 46/1/434 527/1/433
f 531/1/443 39/1/121 127/1/120
f 531/1/443 40/1/127 532/1/444
f 532/1/444 187/1/445 39/1/121
f 532/1/444 188/1/446 533/1/447
f 531/1/443 187/1/445 533/1/447
f 531/1/443 188/1/446 128/1/122
f 534/1/448 189/1/449 187/1/445
f 534/1/448 190/1/450 535/1/451
f 535/1/451 127/1/120 189/1/449
f 535/1/451 128/1/122 536/1/452
f 534/1/448 127/1/120 536/1/452
f 534/1/448 128/1/122 188/1/446
f 538/1/453 39/1/121 537/1/454
f 538/1/453 40/1/127 68/1/167
f 538/1/453 187/1/445 67/1/166
f 538/1/453 188/1/446 539/1/455
f 537/1/454 187/1/445 539/1/455
f 537/1/454 188/1/446 40/1/127
f 541/1/456 129/1/399 540/1/457
f 541/1/456 130/1/400 188/1/446
f 541/1/456 67/1/166 187/1/445
f 541/1/456 68/1/167 542/1/458
f 542/1/458 129/1/399 67/1/166
f 542/1/458 130/1/400 540/1/457
f 544/1/459 193/1/460 543/1/461
f 544/1/459 194/1/462 192/1/463
f 545/1/464 191/1/465 544/1/459
f 545/1/464 192/1/463 144/1/466
f 546/1/467 143/1/468 545/1/464
f 546/1/467 144/1/466 142/1/247
f 546/1/467 135/1/244 141/1/249
f 546/1/467 136/1/246 547/1/469
f 548/1/470 135/1/244 547/1/469
f 548/1/470 136/1/246 138/1/136
f 548/1/470 139/1/144 137/1/134
f 548/1/470 140/1/146 549/1/471
f 550/1/472 139/1/144 549/1/471
f 550/1/472 140/1/146 198/1/473
f 550/1/472 193/1/460 197/1/474
f 550/1/472 194/1/462 543/1/461
f 552/1/475 145/1/115 551/1/476
f 552/1/475 146/1/116 150/1/111
f 552/1/475 75/1/258 149/1/110
f 552/1/475 76/1/260 553/1/477
f 554/1/478 75/1/258 553/1/477
f 554/1/478 76/1/260 78/1/263
f 554/1/478 199/1/293 77/1/262
f 554/1/478 200/1/303 555/1/479
f 555/1/479 151/1/302 199/1/293
f 555/1/479 152/1/301 556/1/480
f 556/1/480 203/1/481 151/1/302
f 556/1/480 204/1/482 557/1/483
f 558/1/484 203/1/481 557/1/483
f 558/1/484 204/1/482 148/1/485
f 558/1/484 145/1/115 147/1/486
f 558/1/484 146/1/116 551/1/476
f 560/1/487 249/1/488 559/1/489
f 559/1/489 258/1/490 560/1/487
f 560/1/487 251/1/491 257/1/492
f 561/1/493 258/1/490 252/1/494
f 561/1/493 253/1/495 251/1/491
f 562/1/496 252/1/494 254/1/497
f 559/1/489 253/1/495 562/1/496
f 562/1/496 250/1/498 559/1/489
f 563/1/499 7/1/24 165/1/188
f 564/1/500 166/1/187 8/1/26
f 564/1/500 163/1/25 7/1/24
f 565/1/501 8/1/26 164/1/29
f 566/1/502 163/1/25 565/1/501
f 565/1/501 160/1/374 566/1/502
f 566/1/502 165/1/188 159/1/372
f 563/1/499 160/1/374 166/1/187
f 567/1/503 29/1/140 27/1/135
f 568/1/504 28/1/141 30/1/139
f 569/1/505 29/1/140 568/1/504
f 568/1/504 24/1/108 569/1/505
f 570/1/506 23/1/106 569/1/505
f 569/1/505 22/1/113 570/1/506
f 567/1/503 21/1/107 570/1/506
f 567/1/503 22/1/113 28/1/141
f 571/1/507 309/1/300 201/1/158
f 572/1/508 202/1/157 310/1/298
f 572/1/508 307/1/509 309/1/300
f 573/1/510 310/1/298 308/1/511
f 574/1/512 307/1/509 573/1/510
f 573/1/510 196/1/151 574/1/512
f 574/1/512 201/1/158 195/1/149
f 574/1/512 202/1/157 571/1/507
f 576/1/513 207/1/514 575/1/515
f 575/1/515 206/1/516 576/1/513
f 577/1/517 205/1/518 576/1/513
f 576/1/513 212/1/363 577/1/517
f 577/1/517 215/1/362 211/1/361
f 578/1/519 212/1/363 216/1/360
f 578/1/519 207/1/514 215/1/362
f 575/1/515 216/1/360 208/1/520
f 580/1/521 157/1/46 579/1/522
f 579/1/522 162/1/523 580/1/521
f 581/1/524 161/1/525 580/1/521
f 581/1/524 162/1/523 154/1/377
f 581/1/524 155/1/36 153/1/378
f 582/1/526 154/1/377 156/1/38
f 582/1/526 157/1/46 155/1/36
f 579/1/522 156/1/38 158/1/49
f 583/1/527 101/1/380 173/1/385
f 583/1/527 102/1/382 584/1/528
f 584/1/528 281/1/200 101/1/380
f 584/1/528 282/1/199 585/1/529
f 583/1/527 281/1/200 585/1/529
f 583/1/527 282/1/199 174/1/383
f 587/1/530 101/1/380 586/1/531
f 587/1/530 102/1/382 106/1/393
f 587/1/530 281/1/200 105/1/394
f 587/1/530 282/1/199 588/1/532
f 586/1/531 281/1/200 588/1/532
f 586/1/531 282/1/199 102/1/382
f 590/1/533 283/1/211 589/1/534
f 590/1/533 284/1/213 282/1/199
f 590/1/533 105/1/394 281/1/200
f 590/1/533 106/1/393 591/1/535
f 589/1/534 105/1/394 591/1/535
f 589/1/534 106/1/393 284/1/213
f 593/1/536 173/1/385 592/1/537
f 593/1/536 174/1/383 282/1/199
f 593/1/536 175/1/195 281/1/200
f 593/1/536 176/1/196 594/1/538
f 592/1/537 175/1/195 594/1/538
f 592/1/537 176/1/196 174/1/383
f 596/1/539 133/1/396 595/1/540
f 595/1/540 294/1/325 596/1/539
f 597/1/541 293/1/323 596/1/539
f 596/1/539 184/1/331 597/1/541
f 598/1/542 183/1/332 597/1/541
f 598/1/542 184/1/331 130/1/400
f 598/1/542 133/1/396 129/1/399
f 598/1/542 134/1/397 595/1/540
f 599/1/543 291/1/544 175/1/195
f 600/1/545 176/1/196 292/1/546
f 600/1/545 177/1/388 291/1/544
f 601/1/547 292/1/546 178/1/386
f 602/1/548 177/1/388 601/1/547
f 602/1/548 178/1/386 174/1/383
f 602/1/548 175/1/195 173/1/385
f 602/1/548 176/1/196 599/1/543
f 603/1/549 117/1/410 285/1/191
f 603/1/549 118/1/411 604/1/550
f 604/1/550 179/1/190 117/1/410
f 604/1/550 180/1/194 605/1/551
f 603/1/549 179/1/190 605/1/551
f 603/1/549 180/1/194 286/1/193
f 606/1/552 285/1/191 117/1/410
f 606/1/552 286/1/193 607/1/553
f 608/1/554 285/1/191 607/1/553
f 608/1/554 286/1/193 182/1/414
f 606/1/552 181/1/413 608/1/554
f 606/1/552 182/1/414 118/1/411
f 609/1/555 181/1/413 111/1/418
f 609/1/555 182/1/414 610/1/556
f 610/1/556 285/1/191 181/1/413
f 610/1/556 286/1/193 611/1/557
f 609/1/555 285/1/191 611/1/557
f 609/1/555 286/1/193 112/1/417
f 612/1/558 287/1/208 285/1/191
f 612/1/558 288/1/214 613/1/559
f 613/1/559 111/1/418 287/1/208
f 613/1/559 112/1/417 614/1/560
f 612/1/558 111/1/418 614/1/560
f 612/1/558 112/1/417 286/1/193
f 615/1/561 129/1/399 185/1/562
f 615/1/561 130/1/400 616/1/563
f 616/1/563 183/1/332 129/1/399
f 616/1/563 184/1/331 617/1/564
f 615/1/561 183/1/332 617/1/564
f 615/1/561 184/1/331 186/1/565
f 618/1/566 185/1/562 129/1/399
f 618/1/566 186/1/565 619/1/567
f 620/1/568 185/1/562 619/1/567
f 620/1/568 186/1/565 188/1/446
f 618/1/566 187/1/445 620/1/568
f 618/1/566 188/1/446 130/1/400
f 621/1/569 187/1/445 189/1/449
f 621/1/569 188/1/446 622/1/570
f 622/1/570 185/1/562 187/1/445
f 622/1/570 186/1/565 623/1/571
f 621/1/569 185/1/562 623/1/571
f 621/1/569 186/1/565 190/1/450
f 625/1/572 189/1/449 624/1/573
f 625/1/572 190/1/450 186/1/565
f 625/1/572 301/1/574 185/1/562
f 625/1/572 302/1/575 626/1/576
f 626/1/576 189/1/449 301/1/574
f 626/1/576 190/1/450 624/1/573
f 627/1/577 193/1/460 191/1/465
f 627/1/577 194/1/462 628/1/578
f 628/1/578 195/1/149 193/1/460
f 628/1/578 196/1/151 629/1/579
f 627/1/577 195/1/149 629/1/579
f 627/1/577 196/1/151 192/1/463
f 630/1/580 195/1/149 197/1/474
f 630/1/580 196/1/151 631/1/581
f 632/1/582 195/1/149 631/1/581
f 632/1/582 196/1/151 194/1/462
f 630/1/580 193/1/460 632/1/582
f 630/1/580 194/1/462 198/1/473
f 633/1/583 197/1/474 195/1/149
f 633/1/583 198/1/473 634/1/584
f 635/1/585 197/1/474 634/1/584
f 635/1/585 198/1/473 306/1/152
f 633/1/583 305/1/148 635/1/585
f 633/1/583 306/1/152 196/1/151
f 637/1/586 191/1/465 636/1/587
f 637/1/586 192/1/463 196/1/151
f 637/1/586 307/1/509 195/1/149
f 637/1/586 308/1/511 638/1/588
f 636/1/587 307/1/509 638/1/588
f 636/1/587 308/1/511 192/1/463
f 640/1/589 119/1/407 639/1/590
f 639/1/590 290/1/591 640/1/589
f 641/1/592 289/1/593 640/1/589
f 640/1/589 180/1/194 641/1/592
f 642/1/594 179/1/190 641/1/592
f 642/1/594 180/1/194 118/1/411
f 642/1/594 119/1/407 117/1/410
f 642/1/594 120/1/408 639/1/590
f 644/1/595 219/1/430 643/1/596
f 644/1/595 220/1/429 224/1/234
f 644/1/595 221/1/242 223/1/232
f 644/1/595 222/1/241 645/1/597
f 646/1/598 221/1/242 645/1/597
f 646/1/598 222/1/241 218/1/422
f 646/1/598 219/1/430 217/1/420
f 646/1/598 220/1/429 643/1/596
f 647/1/599 151/1/302 201/1/158
f 647/1/599 152/1/301 648/1/600
f 648/1/600 309/1/300 151/1/302
f 648/1/600 310/1/298 649/1/601
f 647/1/599 309/1/300 649/1/601
f 647/1/599 310/1/298 202/1/157
f 650/1/602 201/1/158 151/1/302
f 650/1/602 202/1/157 651/1/603
f 652/1/604 201/1/158 651/1/603
f 652/1/604 202/1/157 204/1/482
f 650/1/602 203/1/481 652/1/604
f 650/1/602 204/1/482 152/1/301
f 653/1/605 203/1/481 147/1/486
f 653/1/605 204/1/482 654/1/606
f 654/1/606 201/1/158 203/1/481
f 654/1/606 202/1/157 655/1/607
f 653/1/605 201/1/158 655/1/607
f 653/1/605 202/1/157 148/1/485
f 656/1/608 303/1/153 201/1/158
f 656/1/608 304/1/154 657/1/609
f 657/1/609 147/1/486 303/1/153
f 657/1/609 148/1/485 658/1/610
f 656/1/608 147/1/486 658/1/610
f 656/1/608 148/1/485 202/1/157
f 660/1/611 65/1/612 659/1/613
f 660/1/611 66/1/614 126/1/359
f 660/1/611 213/1/367 125/1/357
f 660/1/611 214/1/366 661/1/615
f 662/1/616 213/1/367 661/1/615
f 662/1/616 214/1/366 64/1/617
f 662/1/616 65/1/612 63/1/618
f 662/1/616 66/1/614 659/1/613
f 664/1/619 35/1/620 663/1/621
f 664/1/619 36/1/622 66/1/614
f 664/1/619 63/1/618 65/1/612
f 664/1/619 64/1/617 665/1/623
f 666/1/624 63/1/618 665/1/623
f 666/1/624 64/1/617 32/1/625
f 666/1/624 35/1/620 31/1/626
f 666/1/624 36/1/622 663/1/621
f 667/1/627 263/1/628 267/1/629
f 667/1/627 264/1/630 668/1/631
f 669/1/632 263/1/628 668/1/631
f 669/1/632 264/1/630 256/1/633
f 669/1/632 259/1/634 255/1/635
f 669/1/632 260/1/636 670/1/637
f 667/1/627 259/1/634 670/1/637
f 667/1/627 260/1/636 268/1/638
f 672/1/639 251/1/491 671/1/640
f 672/1/639 252/1/494 260/1/636
f 672/1/639 255/1/635 259/1/634
f 672/1/639 256/1/633 673/1/641
f 674/1/642 255/1/635 673/1/641
f 674/1/642 256/1/633 254/1/497
f 674/1/642 251/1/491 253/1/495
f 674/1/642 252/1/494 671/1/640
f 676/1/643 267/1/629 675/1/644
f 676/1/643 268/1/638 276/1/645
f 676/1/643 271/1/646 275/1/647
f 676/1/643 272/1/648 677/1/649
f 678/1/650 271/1/646 677/1/649
f 678/1/650 272/1/648 264/1/630
f 678/1/650 267/1/629 263/1/628
f 678/1/650 268/1/638 675/1/644
f 680/1/651 235/1/652 679/1/653
f 679/1/653 240/1/654 680/1/651
f 681/1/655 239/1/656 680/1/651
f 680/1/651 228/1/238 681/1/655
f 681/1/655 231/1/237 227/1/236
f 682/1/657 228/1/238 232/1/235
f 682/1/657 235/1/652 231/1/237
f 679/1/653 232/1/235 236/1/658
f 683/1/659 81/1/290 299/1/285
f 684/1/660 300/1/291 82/1/289
f 684/1/660 301/1/574 81/1/290
f 684/1/660 302/1/575 685/1/661
f 686/1/662 301/1/574 685/1/661
f 685/1/661 186/1/565 686/1/662
f 683/1/659 185/1/562 686/1/662
f 686/1/662 300/1/291 683/1/659
f 688/1/663 243/1/175 687/1/664
f 688/1/663 244/1/173 248/1/172
f 688/1/663 239/1/656 247/1/170
f 688/1/663 240/1/654 689/1/665
f 690/1/666 239/1/656 689/1/665
f 690/1/666 240/1/654 236/1/658
f 690/1/666 243/1/175 235/1/652
f 690/1/666 244/1/173 687/1/664
f 692/1/667 277/1/668 691/1/669
f 692/1/667 278/1/670 280/1/671
f 692/1/667 273/1/672 279/1/673
f 692/1/667 274/1/674 693/1/675
f 694/1/676 273/1/672 693/1/675
f 694/1/676 274/1/674 270/1/677
f 694/1/676 277/1/668 269/1/678
f 694/1/676 278/1/670 691/1/669
f 696/1/679 269/1/678 695/1/680
f 696/1/679 270/1/677 274/1/674
f 696/1/679 265/1/681 273/1/672
f 696/1/679 266/1/682 697/1/683
f 698/1/684 265/1/681 697/1/683
f 698/1/684 266/1/682 262/1/685
f 698/1/684 269/1/678 261/1/686
f 698/1/684 270/1/677 695/1/680
f 700/1/687 279/1/673 699/1/688
f 699/1/688 278/1/670 700/1/687
f 701/1/689 277/1/668 700/1/687
f 700/1/687 272/1/648 701/1/689
f 701/1/689 275/1/647 271/1/646
f 702/1/690 272/1/648 276/1/645
f 702/1/690 279/1/673 275/1/647
f 699/1/688 276/1/645 280/1/671
f 704/1/691 209/1/692 703/1/693
f 704/1/691 210/1/694 122/1/695
f 704/1/691 205/1/518 121/1/696
f 704/1/691 206/1/516 705/1/697
f 706/1/698 205/1/518 705/1/697
f 706/1/698 206/1/516 208/1/520
f 706/1/698 209/1/692 207/1/514
f 706/1/698 210/1/694 703/1/693
f 708/1/699 241/1/180 707/1/700
f 708/1/699 242/1/179 246/1/176
f 709/1/701 245/1/174 708/1/699
f 708/1/699 234/1/702 709/1/701
f 710/1/703 233/1/704 709/1/701
f 710/1/703 234/1/702 238/1/705
f 710/1/703 241/1/180 237/1/706
f 710/1/703 242/1/179 707/1/700
f 712/1/707 261/1/686 711/1/708
f 712/1/707 262/1/685 266/1/682
f 713/1/709 265/1/681 712/1/707
f 712/1/707 258/1/490 713/1/709
f 714/1/710 257/1/492 713/1/709
f 714/1/710 258/1/490 250/1/498
f 714/1/710 261/1/686 249/1/488
f 714/1/710 262/1/685 711/1/708
f 716/1/711 43/1/442 715/1/712
f 716/1/711 44/1/441 124/1/438
f 716/1/711 121/1/696 123/1/436
f 716/1/711 122/1/695 717/1/713
f 718/1/714 121/1/696 717/1/713
f 718/1/714 122/1/695 210/1/694
f 718/1/714 43/1/442 209/1/692
f 718/1/714 44/1/441 715/1/712
f 719/1/715 313/1/716 307/1/509
f 720/1/717 308/1/511 314/1/718
f 720/1/717 143/1/468 313/1/716
f 721/1/719 314/1/718 144/1/466
f 722/1/720 143/1/468 721/1/719
f 722/1/720 144/1/466 192/1/463
f 722/1/720 307/1/509 191/1/465
f 722/1/720 308/1/511 719/1/715
f 724/1/721 229/1/425 723/1/722
f 723/1/722 238/1/705 724/1/721
f 725/1/723 237/1/706 724/1/721
f 724/1/721 234/1/702 725/1/723
f 725/1/723 225/1/424 233/1/704
f 726/1/724 234/1/702 226/1/426
f 726/1/724 229/1/425 225/1/424
f 723/1/722 226/1/426 230/1/423
f 728/1/725 311/1/297 727/1/726
f 727/1/726 314/1/718 728/1/725
f 729/1/727 313/1/716 728/1/725
f 728/1/725 308/1/511 729/1/727
f 729/1/727 309/1/300 307/1/509
f 729/1/727 310/1/298 730/1/728
f 730/1/728 311/1/297 309/1/300
f 727/1/726 310/1/298 312/1/295
f 732/1/729 289/1/593 731/1/730
f 731/1/730 292/1/546 732/1/729
f 733/1/731 291/1/544 732/1/729
f 732/1/729 176/1/196 733/1/731
f 733/1/731 179/1/190 175/1/195
f 733/1/731 180/1/194 734/1/732
f 734/1/732 289/1/593 179/1/190
f 731/1/730 180/1/194 290/1/591
f 735/1/733 19/1/102 71/1/80
f 736/1/734 72/1/84 20/1/103
f 736/1/734 59/1/72 19/1/102
f 737/1/735 20/1/103 60/1/71
f 738/1/736 59/1/72 737/1/735
f 737/1/735 56/1/86 738/1/736
f 735/1/733 55/1/88 738/1/736
f 738/1/736 72/1/84 735/1/733
f 740/1/737 19/1/102 739/1/738
f 739/1/738 18/1/97 740/1/737
f 740/1/737 13/1/67 17/1/98
f 740/1/737 14/1/73 741/1/739
f 741/1/739 59/1/72 13/1/67
f 742/1/740 14/1/73 60/1/71
f 742/1/740 19/1/102 59/1/72
f 742/1/740 20/1/103 739/1/738
f 743/1/741 41/1/130 99/1/355
f 744/1/742 100/1/354 42/1/131
f 745/1/743 41/1/130 744/1/742
f 744/1/742 26/1/125 745/1/743
f 746/1/744 25/1/126 745/1/743
f 746/1/744 26/1/125 94/1/315
f 746/1/744 99/1/355 93/1/313
f 743/1/741 94/1/315 100/1/354
f 747/1/745 23/1/106 51/1/54
f 748/1/746 52/1/58 24/1/108
f 748/1/746 29/1/140 23/1/106
f 748/1/746 30/1/139 749/1/747
f 750/1/748 29/1/140 749/1/747
f 749/1/747 48/1/61 750/1/748
f 747/1/745 47/1/59 750/1/748
f 750/1/748 52/1/58 747/1/745
f 751/1/749 37/1/160 97/1/306
f 752/1/750 98/1/311 38/1/163
f 752/1/750 95/1/343 37/1/160
f 753/1/751 38/1/163 96/1/345
f 754/1/752 95/1/343 753/1/751
f 753/1/751 90/1/342 754/1/752
f 751/1/749 89/1/344 754/1/752
f 754/1/752 98/1/311 751/1/749
f 756/1/753 11/1/44 755/1/754
f 755/1/754 168/1/204 756/1/753
f 756/1/753 161/1/525 167/1/205
f 757/1/755 168/1/204 162/1/523
f 757/1/755 157/1/46 161/1/525
f 758/1/756 162/1/523 158/1/49
f 755/1/754 157/1/46 758/1/756
f 758/1/756 12/1/42 755/1/754
f 760/1/757 295/1/330 759/1/758
f 759/1/758 300/1/291 760/1/757
f 760/1/757 185/1/562 299/1/285
f 760/1/757 186/1/565 761/1/759
f 761/1/759 183/1/332 185/1/562
f 762/1/760 186/1/565 184/1/331
f 762/1/760 295/1/330 183/1/332
f 759/1/758 184/1/331 296/1/328
f 763/1/761 35/1/620 45/1/432
f 764/1/762 46/1/434 36/1/622
f 764/1/762 31/1/626 35/1/620
f 765/1/763 36/1/622 32/1/625
f 766/1/764 31/1/626 765/1/763
f 765/1/763 34/1/435 766/1/764
f 763/1/761 33/1/437 766/1/764
f 766/1/764 46/1/434 763/1/761
f 768/1/765 315/1/11 767/1/766
f 767/1/766 6/1/4 768/1/765
f 768/1/765 317/1/16 5/1/2
f 769/1/767 6/1/4 318/1/19
f 767/1/766 317/1/16 769/1/767
f 769/1/767 316/1/12 767/1/766
f 771/1/768 1/1/7 770/1/769
f 770/1/769 6/1/4 771/1/768
f 771/1/768 315/1/11 5/1/2
f 771/1/768 316/1/12 772/1/770
f 772/1/770 1/1/7 315/1/11
f 770/1/769 316/1/12 2/1/5
f 773/1/771 41/1/130 37/1/160
f 774/1/772 38/1/163 42/1/131
f 775/1/773 41/1/130 774/1/772
f 775/1/773 42/1/131 100/1/354
f 776/1/774 99/1/355 775/1/773
f 775/1/773 96/1/345 776/1/774
f 773/1/771 95/1/343 776/1/774
f 776/1/774 38/1/163 773/1/771
f 320/1/1 1/1/7 5/1/2
f 320/1/1 319/1/3 6/1/4
f 321/1/6 3/1/9 1/1/7
f 321/1/6 320/1/1 2/1/5
f 321/1/6 319/1/3 5/1/2
f 321/1/6 4/1/8 6/1/4
f 322/1/10 323/1/13 315/1/11
f 322/1/10 2/1/5 316/1/12
f 324/1/14 3/1/9 315/1/11
f 324/1/14 323/1/13 316/1/12
f 324/1/14 322/1/10 1/1/7
f 324/1/14 4/1/8 2/1/5
f 325/1/15 326/1/17 5/1/2
f 325/1/15 318/1/19 6/1/4
f 327/1/18 3/1/9 5/1/2
f 327/1/18 326/1/17 6/1/4
f 327/1/18 325/1/15 317/1/16
f 327/1/18 4/1/8 318/1/19
f 329/1/20 317/1/16 315/1/11
f 329/1/20 328/1/21 316/1/12
f 330/1/22 3/1/9 317/1/16
f 330/1/22 329/1/20 318/1/19
f 330/1/22 328/1/21 315/1/11
f 330/1/22 4/1/8 316/1/12
f 331/1/23 332/1/27 7/1/24
f 331/1/23 164/1/29 8/1/26
f 333/1/28 9/1/8 7/1/24
f 333/1/28 332/1/27 8/1/26
f 333/1/28 331/1/23 163/1/25
f 333/1/28 10/1/9 164/1/29
f 335/1/30 169/1/34 7/1/24
f 335/1/30 334/1/31 8/1/26
f 336/1/33 9/1/8 169/1/34
f 336/1/33 335/1/30 170/1/32
f 336/1/33 334/1/31 7/1/24
f 336/1/33 10/1/9 8/1/26
f 338/1/35 163/1/25 155/1/36
f 338/1/35 337/1/37 156/1/38
f 339/1/39 9/1/8 163/1/25
f 339/1/39 338/1/35 164/1/29
f 339/1/39 337/1/37 155/1/36
f 339/1/39 10/1/9 156/1/38
f 341/1/40 11/1/44 169/1/34
f 341/1/40 340/1/41 170/1/32
f 342/1/43 9/1/8 11/1/44
f 342/1/43 341/1/40 12/1/42
f 342/1/43 340/1/41 169/1/34
f 342/1/43 10/1/9 170/1/32
f 343/1/45 344/1/47 155/1/36
f 343/1/45 158/1/49 156/1/38
f 345/1/48 9/1/8 155/1/36
f 345/1/48 344/1/47 156/1/38
f 345/1/48 343/1/45 157/1/46
f 345/1/48 10/1/9 158/1/49
f 347/1/50 157/1/46 11/1/44
f 347/1/50 346/1/51 12/1/42
f 348/1/52 9/1/8 157/1/46
f 348/1/52 347/1/50 158/1/49
f 348/1/52 346/1/51 11/1/44
f 348/1/52 10/1/9 12/1/42
f 349/1/53 350/1/56 51/1/54
f 350/1/56 349/1/53 54/1/57
f 350/1/56 351/1/60 47/1/59
f 351/1/60 350/1/56 52/1/58
f 352/1/62 49/1/64 47/1/59
f 351/1/60 48/1/61 50/1/63
f 349/1/53 53/1/55 49/1/64
f 352/1/62 50/1/63 54/1/57
f 353/1/65 354/1/69 103/1/66
f 353/1/65 14/1/73 104/1/68
f 355/1/70 59/1/72 103/1/66
f 355/1/70 354/1/69 104/1/68
f 353/1/65 13/1/67 59/1/72
f 353/1/65 355/1/70 60/1/71
f 356/1/74 357/1/75 13/1/67
f 356/1/74 104/1/68 14/1/73
f 357/1/75 358/1/77 15/1/76
f 358/1/77 357/1/75 14/1/73
f 356/1/74 103/1/66 15/1/76
f 356/1/74 358/1/77 16/1/78
f 359/1/79 360/1/82 71/1/80
f 360/1/82 359/1/79 70/1/83
f 361/1/85 55/1/88 71/1/80
f 360/1/82 72/1/84 56/1/86
f 362/1/87 57/1/90 55/1/88
f 361/1/85 56/1/86 58/1/89
f 362/1/87 359/1/79 69/1/81
f 359/1/79 362/1/87 58/1/89
f 363/1/91 364/1/95 109/1/92
f 363/1/91 114/1/99 110/1/94
f 365/1/96 17/1/98 109/1/92
f 364/1/95 110/1/94 18/1/97
f 363/1/91 113/1/93 17/1/98
f 363/1/91 365/1/96 18/1/97
f 367/1/100 17/1/98 113/1/93
f 367/1/100 366/1/101 114/1/99
f 367/1/100 368/1/104 19/1/102
f 367/1/100 18/1/97 20/1/103
f 368/1/104 366/1/101 113/1/93
f 368/1/104 20/1/103 114/1/99
f 369/1/105 370/1/109 23/1/106
f 369/1/105 22/1/113 24/1/108
f 370/1/109 371/1/112 149/1/110
f 370/1/109 24/1/108 150/1/111
f 369/1/105 21/1/107 149/1/110
f 369/1/105 371/1/112 150/1/111
f 372/1/114 373/1/117 145/1/115
f 372/1/114 150/1/111 146/1/116
f 374/1/118 21/1/107 145/1/115
f 373/1/117 146/1/116 22/1/113
f 372/1/114 149/1/110 21/1/107
f 372/1/114 374/1/118 22/1/113
f 375/1/119 376/1/123 127/1/120
f 375/1/119 40/1/127 128/1/122
f 377/1/124 25/1/126 127/1/120
f 376/1/123 128/1/122 26/1/125
f 375/1/119 39/1/121 25/1/126
f 375/1/119 377/1/124 26/1/125
f 379/1/128 25/1/126 39/1/121
f 379/1/128 378/1/129 40/1/127
f 379/1/128 380/1/132 41/1/130
f 379/1/128 26/1/125 42/1/131
f 380/1/132 378/1/129 39/1/121
f 380/1/132 42/1/131 40/1/127
f 381/1/133 382/1/137 137/1/134
f 381/1/133 28/1/141 138/1/136
f 383/1/138 29/1/140 137/1/134
f 383/1/138 382/1/137 138/1/136
f 381/1/133 27/1/135 29/1/140
f 381/1/133 383/1/138 30/1/139
f 384/1/142 385/1/143 27/1/135
f 384/1/142 138/1/136 28/1/141
f 385/1/143 386/1/145 139/1/144
f 386/1/145 385/1/143 28/1/141
f 384/1/142 137/1/134 139/1/144
f 384/1/142 386/1/145 140/1/146
f 387/1/147 388/1/150 305/1/148
f 388/1/150 387/1/147 196/1/151
f 388/1/150 389/1/155 303/1/153
f 388/1/150 306/1/152 304/1/154
f 390/1/156 201/1/158 303/1/153
f 389/1/155 304/1/154 202/1/157
f 387/1/147 195/1/149 201/1/158
f 387/1/147 390/1/156 202/1/157
f 391/1/159 392/1/161 39/1/121
f 391/1/159 38/1/163 40/1/127
f 393/1/162 41/1/130 39/1/121
f 393/1/162 392/1/161 40/1/127
f 391/1/159 37/1/160 41/1/130
f 391/1/159 393/1/162 42/1/131
f 394/1/164 395/1/165 37/1/160
f 394/1/164 40/1/127 38/1/163
f 395/1/165 396/1/168 67/1/166
f 395/1/165 38/1/163 68/1/167
f 394/1/164 39/1/121 67/1/166
f 394/1/164 396/1/168 68/1/167
f 398/1/169 243/1/175 247/1/170
f 398/1/169 397/1/171 248/1/172
f 398/1/169 399/1/177 245/1/174
f 398/1/169 244/1/173 246/1/176
f 400/1/178 241/1/180 245/1/174
f 400/1/178 399/1/177 246/1/176
f 400/1/178 397/1/171 247/1/170
f 400/1/178 242/1/179 248/1/172
f 401/1/181 402/1/183 169/1/34
f 402/1/183 401/1/181 172/1/184
f 403/1/185 7/1/24 169/1/34
f 403/1/185 402/1/183 170/1/32
f 404/1/186 165/1/188 7/1/24
f 403/1/185 8/1/26 166/1/187
f 404/1/186 401/1/181 171/1/182
f 404/1/186 166/1/187 172/1/184
f 405/1/189 406/1/192 179/1/190
f 406/1/192 405/1/189 286/1/193
f 406/1/192 407/1/197 175/1/195
f 406/1/192 180/1/194 176/1/196
f 408/1/198 281/1/200 175/1/195
f 407/1/197 176/1/196 282/1/199
f 405/1/189 285/1/191 281/1/200
f 408/1/198 282/1/199 286/1/193
f 410/1/201 171/1/182 169/1/34
f 409/1/202 170/1/32 172/1/184
f 411/1/203 167/1/205 171/1/182
f 410/1/201 172/1/184 168/1/204
f 411/1/203 412/1/206 11/1/44
f 412/1/206 411/1/203 168/1/204
f 412/1/206 409/1/202 169/1/34
f 412/1/206 12/1/42 170/1/32
f 414/1/207 285/1/191 287/1/208
f 413/1/209 288/1/214 286/1/193
f 415/1/210 281/1/200 285/1/191
f 414/1/207 286/1/193 282/1/199
f 415/1/210 416/1/212 283/1/211
f 416/1/212 415/1/210 282/1/199
f 416/1/212 413/1/209 287/1/208
f 416/1/212 284/1/213 288/1/214
f 417/1/215 418/1/216 59/1/72
f 417/1/215 56/1/86 60/1/71
f 418/1/216 419/1/217 103/1/66
f 418/1/216 60/1/71 104/1/68
f 417/1/215 55/1/88 103/1/66
f 417/1/215 419/1/217 104/1/68
f 421/1/218 103/1/66 55/1/88
f 421/1/218 420/1/219 56/1/86
f 421/1/218 422/1/222 61/1/220
f 421/1/218 104/1/68 62/1/221
f 420/1/219 55/1/88 61/1/220
f 420/1/219 422/1/222 62/1/221
f 423/1/223 424/1/226 73/1/224
f 423/1/223 70/1/83 74/1/225
f 424/1/226 425/1/229 115/1/227
f 424/1/226 74/1/225 116/1/228
f 426/1/230 71/1/80 115/1/227
f 426/1/230 425/1/229 116/1/228
f 423/1/223 69/1/81 71/1/80
f 426/1/230 72/1/84 70/1/83
f 428/1/231 231/1/237 223/1/232
f 428/1/231 427/1/233 224/1/234
f 428/1/231 429/1/239 227/1/236
f 428/1/231 232/1/235 228/1/238
f 430/1/240 221/1/242 227/1/236
f 430/1/240 429/1/239 228/1/238
f 430/1/240 427/1/233 223/1/232
f 430/1/240 222/1/241 224/1/234
f 432/1/243 141/1/249 135/1/244
f 432/1/243 431/1/245 136/1/246
f 433/1/248 49/1/64 141/1/249
f 433/1/248 432/1/243 142/1/247
f 433/1/248 434/1/250 47/1/59
f 434/1/250 433/1/248 50/1/63
f 434/1/250 431/1/245 135/1/244
f 434/1/250 48/1/61 136/1/246
f 435/1/251 436/1/252 71/1/80
f 435/1/251 114/1/99 72/1/84
f 436/1/252 437/1/253 115/1/227
f 436/1/252 72/1/84 116/1/228
f 435/1/251 113/1/93 115/1/227
f 435/1/251 437/1/253 116/1/228
f 438/1/254 439/1/255 113/1/93
f 438/1/254 72/1/84 114/1/99
f 440/1/256 19/1/102 113/1/93
f 440/1/256 439/1/255 114/1/99
f 438/1/254 71/1/80 19/1/102
f 438/1/254 440/1/256 20/1/103
f 442/1/257 51/1/54 75/1/258
f 442/1/257 441/1/259 76/1/260
f 443/1/261 53/1/55 51/1/54
f 442/1/257 52/1/58 54/1/57
f 443/1/261 444/1/264 77/1/262
f 443/1/261 54/1/57 78/1/263
f 444/1/264 441/1/259 75/1/258
f 444/1/264 78/1/263 76/1/260
f 446/1/265 137/1/134 47/1/59
f 446/1/265 445/1/266 48/1/61
f 446/1/265 447/1/267 135/1/244
f 446/1/265 138/1/136 136/1/246
f 445/1/266 47/1/59 135/1/244
f 445/1/266 447/1/267 136/1/246
f 448/1/268 449/1/269 29/1/140
f 448/1/268 48/1/61 30/1/139
f 449/1/269 450/1/270 137/1/134
f 449/1/269 30/1/139 138/1/136
f 448/1/268 47/1/59 137/1/134
f 448/1/268 450/1/270 138/1/136
f 452/1/271 107/1/275 61/1/220
f 452/1/271 451/1/272 62/1/221
f 453/1/274 57/1/90 107/1/275
f 453/1/274 452/1/271 108/1/273
f 453/1/274 454/1/276 55/1/88
f 454/1/276 453/1/274 58/1/89
f 454/1/276 451/1/272 61/1/220
f 454/1/276 56/1/86 62/1/221
f 455/1/277 456/1/278 51/1/54
f 455/1/277 150/1/111 52/1/58
f 456/1/278 457/1/279 75/1/258
f 456/1/278 52/1/58 76/1/260
f 455/1/277 149/1/110 75/1/258
f 455/1/277 457/1/279 76/1/260
f 458/1/280 459/1/281 149/1/110
f 458/1/280 52/1/58 150/1/111
f 460/1/282 23/1/106 149/1/110
f 460/1/282 459/1/281 150/1/111
f 458/1/280 51/1/54 23/1/106
f 458/1/280 460/1/282 24/1/108
f 461/1/283 462/1/287 79/1/284
f 461/1/283 300/1/291 80/1/286
f 463/1/288 81/1/290 79/1/284
f 463/1/288 462/1/287 80/1/286
f 461/1/283 299/1/285 81/1/290
f 461/1/283 463/1/288 82/1/289
f 465/1/292 311/1/297 199/1/293
f 464/1/294 200/1/303 312/1/295
f 466/1/296 309/1/300 311/1/297
f 465/1/292 312/1/295 310/1/298
f 467/1/299 151/1/302 309/1/300
f 467/1/299 466/1/296 310/1/298
f 467/1/299 464/1/294 199/1/293
f 467/1/299 152/1/301 200/1/303
f 468/1/304 469/1/308 131/1/305
f 468/1/304 98/1/311 132/1/307
f 469/1/308 470/1/309 67/1/166
f 469/1/308 132/1/307 68/1/167
f 471/1/310 37/1/160 67/1/166
f 471/1/310 470/1/309 68/1/167
f 468/1/304 97/1/306 37/1/160
f 471/1/310 38/1/163 98/1/311
f 472/1/312 473/1/316 93/1/313
f 472/1/312 92/1/320 94/1/315
f 473/1/316 474/1/318 83/1/317
f 474/1/318 473/1/316 94/1/315
f 472/1/312 91/1/314 83/1/317
f 472/1/312 474/1/318 84/1/319
f 475/1/321 476/1/324 297/1/322
f 476/1/324 475/1/321 294/1/325
f 477/1/327 295/1/330 297/1/322
f 476/1/324 298/1/326 296/1/328
f 478/1/329 183/1/332 295/1/330
f 477/1/327 296/1/328 184/1/331
f 478/1/329 475/1/321 293/1/323
f 475/1/321 478/1/329 184/1/331
f 480/1/333 297/1/322 295/1/330
f 480/1/333 479/1/334 296/1/328
f 480/1/333 481/1/336 85/1/335
f 481/1/336 480/1/333 298/1/326
f 482/1/338 87/1/341 85/1/335
f 482/1/338 481/1/336 86/1/337
f 483/1/340 89/1/344 87/1/341
f 483/1/340 482/1/338 88/1/339
f 483/1/340 484/1/346 95/1/343
f 483/1/340 90/1/342 96/1/345
f 485/1/347 91/1/314 95/1/343
f 485/1/347 484/1/346 96/1/345
f 485/1/347 486/1/348 83/1/317
f 485/1/347 92/1/320 84/1/319
f 487/1/349 79/1/284 83/1/317
f 487/1/349 486/1/348 84/1/319
f 487/1/349 488/1/350 299/1/285
f 487/1/349 80/1/286 300/1/291
f 479/1/334 295/1/330 299/1/285
f 479/1/334 488/1/350 300/1/291
f 489/1/351 490/1/352 91/1/314
f 489/1/351 94/1/315 92/1/320
f 491/1/353 99/1/355 91/1/314
f 491/1/353 490/1/352 92/1/320
f 489/1/351 93/1/313 99/1/355
f 489/1/351 491/1/353 100/1/354
f 493/1/356 215/1/362 125/1/357
f 493/1/356 492/1/358 126/1/359
f 493/1/356 494/1/364 211/1/361
f 493/1/356 216/1/360 212/1/363
f 495/1/365 213/1/367 211/1/361
f 495/1/365 494/1/364 212/1/363
f 495/1/365 492/1/358 125/1/357
f 495/1/365 214/1/366 126/1/359
f 496/1/368 497/1/369 99/1/355
f 496/1/368 96/1/345 100/1/354
f 497/1/369 498/1/370 91/1/314
f 497/1/369 100/1/354 92/1/320
f 496/1/368 95/1/343 91/1/314
f 496/1/368 498/1/370 92/1/320
f 499/1/371 500/1/373 163/1/25
f 500/1/373 499/1/371 160/1/374
f 500/1/373 501/1/375 155/1/36
f 500/1/373 164/1/29 156/1/38
f 502/1/376 153/1/378 155/1/36
f 501/1/375 156/1/38 154/1/377
f 499/1/371 159/1/372 153/1/378
f 499/1/371 502/1/376 154/1/377
f 504/1/379 173/1/385 101/1/380
f 504/1/379 503/1/381 102/1/382
f 505/1/384 177/1/388 173/1/385
f 505/1/384 504/1/379 174/1/383
f 506/1/387 107/1/275 177/1/388
f 506/1/387 505/1/384 178/1/386
f 506/1/387 507/1/389 61/1/220
f 506/1/387 108/1/273 62/1/221
f 508/1/390 103/1/66 61/1/220
f 508/1/390 507/1/389 62/1/221
f 508/1/390 509/1/391 15/1/76
f 508/1/390 104/1/68 16/1/78
f 510/1/392 105/1/394 15/1/76
f 510/1/392 509/1/391 16/1/78
f 510/1/392 503/1/381 101/1/380
f 510/1/392 106/1/393 102/1/382
f 511/1/395 512/1/398 133/1/396
f 511/1/395 132/1/307 134/1/397
f 512/1/398 513/1/401 129/1/399
f 512/1/398 134/1/397 130/1/400
f 514/1/402 67/1/166 129/1/399
f 514/1/402 513/1/401 130/1/400
f 514/1/402 511/1/395 131/1/305
f 514/1/402 68/1/167 132/1/307
f 516/1/403 113/1/93 109/1/92
f 516/1/403 515/1/404 110/1/94
f 516/1/403 517/1/405 115/1/227
f 516/1/403 114/1/99 116/1/228
f 518/1/406 73/1/224 115/1/227
f 518/1/406 517/1/405 116/1/228
f 518/1/406 519/1/409 119/1/407
f 518/1/406 74/1/225 120/1/408
f 519/1/409 520/1/412 117/1/410
f 519/1/409 120/1/408 118/1/411
f 520/1/412 521/1/415 181/1/413
f 520/1/412 118/1/411 182/1/414
f 522/1/416 111/1/418 181/1/413
f 522/1/416 521/1/415 182/1/414
f 522/1/416 515/1/404 109/1/92
f 522/1/416 112/1/417 110/1/94
f 524/1/419 229/1/425 217/1/420
f 524/1/419 523/1/421 218/1/422
f 524/1/419 525/1/427 225/1/424
f 524/1/419 230/1/423 226/1/426
f 526/1/428 219/1/430 225/1/424
f 526/1/428 525/1/427 226/1/426
f 526/1/428 523/1/421 217/1/420
f 526/1/428 220/1/429 218/1/422
f 528/1/431 33/1/437 45/1/432
f 528/1/431 527/1/433 46/1/434
f 528/1/431 529/1/439 123/1/436
f 528/1/431 34/1/435 124/1/438
f 530/1/440 43/1/442 123/1/436
f 530/1/440 529/1/439 124/1/438
f 527/1/433 45/1/432 43/1/442
f 530/1/440 44/1/441 46/1/434
f 531/1/443 532/1/444 39/1/121
f 531/1/443 128/1/122 40/1/127
f 532/1/444 533/1/447 187/1/445
f 532/1/444 40/1/127 188/1/446
f 531/1/443 127/1/120 187/1/445
f 531/1/443 533/1/447 188/1/446
f 534/1/448 535/1/451 189/1/449
f 534/1/448 188/1/446 190/1/450
f 535/1/451 536/1/452 127/1/120
f 535/1/451 190/1/450 128/1/122
f 534/1/448 187/1/445 127/1/120
f 534/1/448 536/1/452 128/1/122
f 538/1/453 67/1/166 39/1/121
f 538/1/453 537/1/454 40/1/127
f 538/1/453 539/1/455 187/1/445
f 538/1/453 68/1/167 188/1/446
f 537/1/454 39/1/121 187/1/445
f 537/1/454 539/1/455 188/1/446
f 541/1/456 187/1/445 129/1/399
f 541/1/456 540/1/457 130/1/400
f 541/1/456 542/1/458 67/1/166
f 541/1/456 188/1/446 68/1/167
f 542/1/458 540/1/457 129/1/399
f 542/1/458 68/1/167 130/1/400
f 544/1/459 191/1/465 193/1/460
f 544/1/459 543/1/461 194/1/462
f 545/1/464 143/1/468 191/1/465
f 545/1/464 544/1/459 192/1/463
f 546/1/467 141/1/249 143/1/468
f 546/1/467 545/1/464 144/1/466
f 546/1/467 547/1/469 135/1/244
f 546/1/467 142/1/247 136/1/246
f 548/1/470 137/1/134 135/1/244
f 548/1/470 547/1/469 136/1/246
f 548/1/470 549/1/471 139/1/144
f 548/1/470 138/1/136 140/1/146
f 550/1/472 197/1/474 139/1/144
f 550/1/472 549/1/471 140/1/146
f 550/1/472 543/1/461 193/1/460
f 550/1/472 198/1/473 194/1/462
f 552/1/475 149/1/110 145/1/115
f 552/1/475 551/1/476 146/1/116
f 552/1/475 553/1/477 75/1/258
f 552/1/475 150/1/111 76/1/260
f 554/1/478 77/1/262 75/1/258
f 554/1/478 553/1/477 76/1/260
f 554/1/478 555/1/479 199/1/293
f 554/1/478 78/1/263 200/1/303
f 555/1/479 556/1/480 151/1/302
f 555/1/479 200/1/303 152/1/301
f 556/1/480 557/1/483 203/1/481
f 556/1/480 152/1/301 204/1/482
f 558/1/484 147/1/486 203/1/481
f 558/1/484 557/1/483 204/1/482
f 558/1/484 551/1/476 145/1/115
f 558/1/484 148/1/485 146/1/116
f 560/1/487 257/1/492 249/1/488
f 559/1/489 250/1/498 258/1/490
f 560/1/487 561/1/493 251/1/491
f 561/1/493 560/1/487 258/1/490
f 561/1/493 562/1/496 253/1/495
f 562/1/496 561/1/493 252/1/494
f 559/1/489 249/1/488 253/1/495
f 562/1/496 254/1/497 250/1/498
f 563/1/499 564/1/500 7/1/24
f 564/1/500 563/1/499 166/1/187
f 564/1/500 565/1/501 163/1/25
f 565/1/501 564/1/500 8/1/26
f 566/1/502 159/1/372 163/1/25
f 565/1/501 164/1/29 160/1/374
f 566/1/502 563/1/499 165/1/188
f 563/1/499 566/1/502 160/1/374
f 567/1/503 568/1/504 29/1/140
f 568/1/504 567/1/503 28/1/141
f 569/1/505 23/1/106 29/1/140
f 568/1/504 30/1/139 24/1/108
f 570/1/506 21/1/107 23/1/106
f 569/1/505 24/1/108 22/1/113
f 567/1/503 27/1/135 21/1/107
f 567/1/503 570/1/506 22/1/113
f 571/1/507 572/1/508 309/1/300
f 572/1/508 571/1/507 202/1/157
f 572/1/508 573/1/510 307/1/509
f 573/1/510 572/1/508 310/1/298
f 574/1/512 195/1/149 307/1/509
f 573/1/510 308/1/511 196/1/151
f 574/1/512 571/1/507 201/1/158
f 574/1/512 196/1/151 202/1/157
f 576/1/513 205/1/518 207/1/514
f 575/1/515 208/1/520 206/1/516
f 577/1/517 211/1/361 205/1/518
f 576/1/513 206/1/516 212/1/363
f 577/1/517 578/1/519 215/1/362
f 578/1/519 577/1/517 212/1/363
f 578/1/519 575/1/515 207/1/514
f 575/1/515 578/1/519 216/1/360
f 580/1/521 161/1/525 157/1/46
f 579/1/522 158/1/49 162/1/523
f 581/1/524 153/1/378 161/1/525
f 581/1/524 580/1/521 162/1/523
f 581/1/524 582/1/526 155/1/36
f 582/1/526 581/1/524 154/1/377
f 582/1/526 579/1/522 157/1/46
f 579/1/522 582/1/526 156/1/38
f 583/1/527 584/1/528 101/1/380
f 583/1/527 174/1/383 102/1/382
f 584/1/528 585/1/529 281/1/200
f 584/1/528 102/1/382 282/1/199
f 583/1/527 173/1/385 281/1/200
f 583/1/527 585/1/529 282/1/199
f 587/1/530 105/1/394 101/1/380
f 587/1/530 586/1/531 102/1/382
f 587/1/530 588/1/532 281/1/200
f 587/1/530 106/1/393 282/1/199
f 586/1/531 101/1/380 281/1/200
f 586/1/531 588/1/532 282/1/199
f 590/1/533 281/1/200 283/1/211
f 590/1/533 589/1/534 284/1/213
f 590/1/533 591/1/535 105/1/394
f 590/1/533 282/1/199 106/1/393
f 589/1/534 283/1/211 105/1/394
f 589/1/534 591/1/535 106/1/393
f 593/1/536 281/1/200 173/1/385
f 593/1/536 592/1/537 174/1/383
f 593/1/536 594/1/538 175/1/195
f 593/1/536 282/1/199 176/1/196
f 592/1/537 173/1/385 175/1/195
f 592/1/537 594/1/538 176/1/196
f 596/1/539 293/1/323 133/1/396
f 595/1/540 134/1/397 294/1/325
f 597/1/541 183/1/332 293/1/323
f 596/1/539 294/1/325 184/1/331
f 598/1/542 129/1/399 183/1/332
f 598/1/542 597/1/541 184/1/331
f 598/1/542 595/1/540 133/1/396
f 598/1/542 130/1/400 134/1/397
f 599/1/543 600/1/545 291/1/544
f 600/1/545 599/1/543 176/1/196
f 600/1/545 601/1/547 177/1/388
f 601/1/547 600/1/545 292/1/546
f 602/1/548 173/1/385 177/1/388
f 602/1/548 601/1/547 178/1/386
f 602/1/548 599/1/543 175/1/195
f 602/1/548 174/1/383 176/1/196
f 603/1/549 604/1/550 117/1/410
f 603/1/549 286/1/193 118/1/411
f 604/1/550 605/1/551 179/1/190
f 604/1/550 118/1/411 180/1/194
f 603/1/549 285/1/191 179/1/190
f 603/1/549 605/1/551 180/1/194
f 606/1/552 607/1/553 285/1/191
f 606/1/552 118/1/411 286/1/193
f 608/1/554 181/1/413 285/1/191
f 608/1/554 607/1/553 286/1/193
f 606/1/552 117/1/410 181/1/413
f 606/1/552 608/1/554 182/1/414
f 609/1/555 610/1/556 181/1/413
f 609/1/555 112/1/417 182/1/414
f 610/1/556 611/1/557 285/1/191
f 610/1/556 182/1/414 286/1/193
f 609/1/555 111/1/418 285/1/191
f 609/1/555 611/1/557 286/1/193
f 612/1/558 613/1/559 287/1/208
f 612/1/558 286/1/193 288/1/214
f 613/1/559 614/1/560 111/1/418
f 613/1/559 288/1/214 112/1/417
f 612/1/558 285/1/191 111/1/418
f 612/1/558 614/1/560 112/1/417
f 615/1/561 616/1/563 129/1/399
f 615/1/561 186/1/565 130/1/400
f 616/1/563 617/1/564 183/1/332
f 616/1/563 130/1/400 184/1/331
f 615/1/561 185/1/562 183/1/332
f 615/1/561 617/1/564 184/1/331
f 618/1/566 619/1/567 185/1/562
f 618/1/566 130/1/400 186/1/565
f 620/1/568 187/1/445 185/1/562
f 620/1/568 619/1/567 186/1/565
f 618/1/566 129/1/399 187/1/445
f 618/1/566 620/1/568 188/1/446
f 621/1/569 622/1/570 187/1/445
f 621/1/569 190/1/450 188/1/446
f 622/1/570 623/1/571 185/1/562
f 622/1/570 188/1/446 186/1/565
f 621/1/569 189/1/449 185/1/562
f 621/1/569 623/1/571 186/1/565
f 625/1/572 185/1/562 189/1/449
f 625/1/572 624/1/573 190/1/450
f 625/1/572 626/1/576 301/1/574
f 625/1/572 186/1/565 302/1/575
f 626/1/576 624/1/573 189/1/449
f 626/1/576 302/1/575 190/1/450
f 627/1/577 628/1/578 193/1/460
f 627/1/577 192/1/463 194/1/462
f 628/1/578 629/1/579 195/1/149
f 628/1/578 194/1/462 196/1/151
f 627/1/577 191/1/465 195/1/149
f 627/1/577 629/1/579 196/1/151
f 630/1/580 631/1/581 195/1/149
f 630/1/580 198/1/473 196/1/151
f 632/1/582 193/1/460 195/1/149
f 632/1/582 631/1/581 196/1/151
f 630/1/580 197/1/474 193/1/460
f 630/1/580 632/1/582 194/1/462
f 633/1/583 634/1/584 197/1/474
f 633/1/583 196/1/151 198/1/473
f 635/1/585 305/1/148 197/1/474
f 635/1/585 634/1/584 198/1/473
f 633/1/583 195/1/149 305/1/148
f 633/1/583 635/1/585 306/1/152
f 637/1/586 195/1/149 191/1/465
f 637/1/586 636/1/587 192/1/463
f 637/1/586 638/1/588 307/1/509
f 637/1/586 196/1/151 308/1/511
f 636/1/587 191/1/465 307/1/509
f 636/1/587 638/1/588 308/1/511
f 640/1/589 289/1/593 119/1/407
f 639/1/590 120/1/408 290/1/591
f 641/1/592 179/1/190 289/1/593
f 640/1/589 290/1/591 180/1/194
f 642/1/594 117/1/410 179/1/190
f 642/1/594 641/1/592 180/1/194
f 642/1/594 639/1/590 119/1/407
f 642/1/594 118/1/411 120/1/408
f 644/1/595 223/1/232 219/1/430
f 644/1/595 643/1/596 220/1/429
f 644/1/595 645/1/597 221/1/242
f 644/1/595 224/1/234 222/1/241
f 646/1/598 217/1/420 221/1/242
f 646/1/598 645/1/597 222/1/241
f 646/1/598 643/1/596 219/1/430
f 646/1/598 218/1/422 220/1/429
f 647/1/599 648/1/600 151/1/302
f 647/1/599 202/1/157 152/1/301
f 648/1/600 649/1/601 309/1/300
f 648/1/600 152/1/301 310/1/298
f 647/1/599 201/1/158 309/1/300
f 647/1/599 649/1/601 310/1/298
f 650/1/602 651/1/603 201/1/158
f 650/1/602 152/1/301 202/1/157
f 652/1/604 203/1/481 201/1/158
f 652/1/604 651/1/603 202/1/157
f 650/1/602 151/1/302 203/1/481
f 650/1/602 652/1/604 204/1/482
f 653/1/605 654/1/606 203/1/481
f 653/1/605 148/1/485 204/1/482
f 654/1/606 655/1/607 201/1/158
f 654/1/606 204/1/482 202/1/157
f 653/1/605 147/1/486 201/1/158
f 653/1/605 655/1/607 202/1/157
f 656/1/608 657/1/609 303/1/153
f 656/1/608 202/1/157 304/1/154
f 657/1/609 658/1/610 147/1/486
f 657/1/609 304/1/154 148/1/485
f 656/1/608 201/1/158 147/1/486
f 656/1/608 658/1/610 148/1/485
f 660/1/611 125/1/357 65/1/612
f 660/1/611 659/1/613 66/1/614
f 660/1/611 661/1/615 213/1/367
f 660/1/611 126/1/359 214/1/366
f 662/1/616 63/1/618 213/1/367
f 662/1/616 661/1/615 214/1/366
f 662/1/616 659/1/613 65/1/612
f 662/1/616 64/1/617 66/1/614
f 664/1/619 65/1/612 35/1/620
f 664/1/619 663/1/621 36/1/622
f 664/1/619 665/1/623 63/1/618
f 664/1/619 66/1/614 64/1/617
f 666/1/624 31/1/626 63/1/618
f 666/1/624 665/1/623 64/1/617
f 666/1/624 663/1/621 35/1/620
f 666/1/624 32/1/625 36/1/622
f 667/1/627 668/1/631 263/1/628
f 667/1/627 268/1/638 264/1/630
f 669/1/632 255/1/635 263/1/628
f 669/1/632 668/1/631 264/1/630
f 669/1/632 670/1/637 259/1/634
f 669/1/632 256/1/633 260/1/636
f 667/1/627 267/1/629 259/1/634
f 667/1/627 670/1/637 260/1/636
f 672/1/639 259/1/634 251/1/491
f 672/1/639 671/1/640 252/1/494
f 672/1/639 673/1/641 255/1/635
f 672/1/639 260/1/636 256/1/633
f 674/1/642 253/1/495 255/1/635
f 674/1/642 673/1/641 256/1/633
f 674/1/642 671/1/640 251/1/491
f 674/1/642 254/1/497 252/1/494
f 676/1/643 275/1/647 267/1/629
f 676/1/643 675/1/644 268/1/638
f 676/1/643 677/1/649 271/1/646
f 676/1/643 276/1/645 272/1/648
f 678/1/650 263/1/628 271/1/646
f 678/1/650 677/1/649 272/1/648
f 678/1/650 675/1/644 267/1/629
f 678/1/650 264/1/630 268/1/638
f 680/1/651 239/1/656 235/1/652
f 679/1/653 236/1/658 240/1/654
f 681/1/655 227/1/236 239/1/656
f 680/1/651 240/1/654 228/1/238
f 681/1/655 682/1/657 231/1/237
f 682/1/657 681/1/655 228/1/238
f 682/1/657 679/1/653 235/1/652
f 679/1/653 682/1/657 232/1/235
f 683/1/659 684/1/660 81/1/290
f 684/1/660 683/1/659 300/1/291
f 684/1/660 685/1/661 301/1/574
f 684/1/660 82/1/289 302/1/575
f 686/1/662 185/1/562 301/1/574
f 685/1/661 302/1/575 186/1/565
f 683/1/659 299/1/285 185/1/562
f 686/1/662 186/1/565 300/1/291
f 688/1/663 247/1/170 243/1/175
f 688/1/663 687/1/664 244/1/173
f 688/1/663 689/1/665 239/1/656
f 688/1/663 248/1/172 240/1/654
f 690/1/666 235/1/652 239/1/656
f 690/1/666 689/1/665 240/1/654
f 690/1/666 687/1/664 243/1/175
f 690/1/666 236/1/658 244/1/173
f 692/1/667 279/1/673 277/1/668
f 692/1/667 691/1/669 278/1/670
f 692/1/667 693/1/675 273/1/672
f 692/1/667 280/1/671 274/1/674
f 694/1/676 269/1/678 273/1/672
f 694/1/676 693/1/675 274/1/674
f 694/1/676 691/1/669 277/1/668
f 694/1/676 270/1/677 278/1/670
f 696/1/679 273/1/672 269/1/678
f 696/1/679 695/1/680 270/1/677
f 696/1/679 697/1/683 265/1/681
f 696/1/679 274/1/674 266/1/682
f 698/1/684 261/1/686 265/1/681
f 698/1/684 697/1/683 266/1/682
f 698/1/684 695/1/680 269/1/678
f 698/1/684 262/1/685 270/1/677
f 700/1/687 277/1/668 279/1/673
f 699/1/688 280/1/671 278/1/670
f 701/1/689 271/1/646 277/1/668
f 700/1/687 278/1/670 272/1/648
f 701/1/689 702/1/690 275/1/647
f 702/1/690 701/1/689 272/1/648
f 702/1/690 699/1/688 279/1/673
f 699/1/688 702/1/690 276/1/645
f 704/1/691 121/1/696 209/1/692
f 704/1/691 703/1/693 210/1/694
f 704/1/691 705/1/697 205/1/518
f 704/1/691 122/1/695 206/1/516
f 706/1/698 207/1/514 205/1/518
f 706/1/698 705/1/697 206/1/516
f 706/1/698 703/1/693 209/1/692
f 706/1/698 208/1/520 210/1/694
f 708/1/699 245/1/174 241/1/180
f 708/1/699 707/1/700 242/1/179
f 709/1/701 233/1/704 245/1/174
f 708/1/699 246/1/176 234/1/702
f 710/1/703 237/1/706 233/1/704
f 710/1/703 709/1/701 234/1/702
f 710/1/703 707/1/700 241/1/180
f 710/1/703 238/1/705 242/1/179
f 712/1/707 265/1/681 261/1/686
f 712/1/707 711/1/708 262/1/685
f 713/1/709 257/1/492 265/1/681
f 712/1/707 266/1/682 258/1/490
f 714/1/710 249/1/488 257/1/492
f 714/1/710 713/1/709 258/1/490
f 714/1/710 711/1/708 261/1/686
f 714/1/710 250/1/498 262/1/685
f 716/1/711 123/1/436 43/1/442
f 716/1/711 715/1/712 44/1/441
f 716/1/711 717/1/713 121/1/696
f 716/1/711 124/1/438 122/1/695
f 718/1/714 209/1/692 121/1/696
f 718/1/714 717/1/713 122/1/695
f 718/1/714 715/1/712 43/1/442
f 718/1/714 210/1/694 44/1/441
f 719/1/715 720/1/717 313/1/716
f 720/1/717 719/1/715 308/1/511
f 720/1/717 721/1/719 143/1/468
f 721/1/719 720/1/717 314/1/718
f 722/1/720 191/1/465 143/1/468
f 722/1/720 721/1/719 144/1/466
f 722/1/720 719/1/715 307/1/509
f 722/1/720 192/1/463 308/1/511
f 724/1/721 237/1/706 229/1/425
f 723/1/722 230/1/423 238/1/705
f 725/1/723 233/1/704 237/1/706
f 724/1/721 238/1/705 234/1/702
f 725/1/723 726/1/724 225/1/424
f 726/1/724 725/1/723 234/1/702
f 726/1/724 723/1/722 229/1/425
f 723/1/722 726/1/724 226/1/426
f 728/1/725 313/1/716 311/1/297
f 727/1/726 312/1/295 314/1/718
f 729/1/727 307/1/509 313/1/716
f 728/1/725 314/1/718 308/1/511
f 729/1/727 730/1/728 309/1/300
f 729/1/727 308/1/511 310/1/298
f 730/1/728 727/1/726 311/1/297
f 727/1/726 730/1/728 310/1/298
f 732/1/729 291/1/544 289/1/593
f 731/1/730 290/1/591 292/1/546
f 733/1/731 175/1/195 291/1/544
f 732/1/729 292/1/546 176/1/196
f 733/1/731 734/1/732 179/1/190
f 733/1/731 176/1/196 180/1/194
f 734/1/732 731/1/730 289/1/593
f 731/1/730 734/1/732 180/1/194
f 735/1/733 736/1/734 19/1/102
f 736/1/734 735/1/733 72/1/84
f 736/1/734 737/1/735 59/1/72
f 737/1/735 736/1/734 20/1/103
f 738/1/736 55/1/88 59/1/72
f 737/1/735 60/1/71 56/1/86
f 735/1/733 71/1/80 55/1/88
f 738/1/736 56/1/86 72/1/84
f 740/1/737 17/1/98 19/1/102
f 739/1/738 20/1/103 18/1/97
f 740/1/737 741/1/739 13/1/67
f 740/1/737 18/1/97 14/1/73
f 741/1/739 742/1/740 59/1/72
f 742/1/740 741/1/739 14/1/73
f 742/1/740 739/1/738 19/1/102
f 742/1/740 60/1/71 20/1/103
f 743/1/741 744/1/742 41/1/130
f 744/1/742 743/1/741 100/1/354
f 745/1/743 25/1/126 41/1/130
f 744/1/742 42/1/131 26/1/125
f 746/1/744 93/1/313 25/1/126
f 746/1/744 745/1/743 26/1/125
f 746/1/744 743/1/741 99/1/355
f 743/1/741 746/1/744 94/1/315
f 747/1/745 748/1/746 23/1/106
f 748/1/746 747/1/745 52/1/58
f 748/1/746 749/1/747 29/1/140
f 748/1/746 24/1/108 30/1/139
f 750/1/748 47/1/59 29/1/140
f 749/1/747 30/1/139 48/1/61
f 747/1/745 51/1/54 47/1/59
f 750/1/748 48/1/61 52/1/58
f 751/1/749 752/1/750 37/1/160
f 752/1/750 751/1/749 98/1/311
f 752/1/750 753/1/751 95/1/343
f 753/1/751 752/1/750 38/1/163
f 754/1/752 89/1/344 95/1/343
f 753/1/751 96/1/345 90/1/342
f 751/1/749 97/1/306 89/1/344
f 754/1/752 90/1/342 98/1/311
f 756/1/753 167/1/205 11/1/44
f 755/1/754 12/1/42 168/1/204
f 756/1/753 757/1/755 161/1/525
f 757/1/755 756/1/753 168/1/204
f 757/1/755 758/1/756 157/1/46
f 758/1/756 757/1/755 162/1/523
f 755/1/754 11/1/44 157/1/46
f 758/1/756 158/1/49 12/1/42
f 760/1/757 299/1/285 295/1/330
f 759/1/758 296/1/328 300/1/291
f 760/1/757 761/1/759 185/1/562
f 760/1/757 300/1/291 186/1/565
f 761/1/759 762/1/760 183/1/332
f 762/1/760 761/1/759 186/1/565
f 762/1/760 759/1/758 295/1/330
f 759/1/758 762/1/760 184/1/331
f 763/1/761 764/1/762 35/1/620
f 764/1/762 763/1/761 46/1/434
f 764/1/762 765/1/763 31/1/626
f 765/1/763 764/1/762 36/1/622
f 766/1/764 33/1/437 31/1/626
f 765/1/763 32/1/625 34/1/435
f 763/1/761 45/1/432 33/1/437
f 766/1/764 34/1/435 46/1/434
f 768/1/765 5/1/2 315/1/11
f 767/1/766 316/1/12 6/1/4
f 768/1/765 769/1/767 317/1/16
f 769/1/767 768/1/765 6/1/4
f 767/1/766 315/1/11 317/1/16
f 769/1/767 318/1/19 316/1/12
f 771/1/768 5/1/2 1/1/7
f 770/1/769 2/1/5 6/1/4
f 771/1/768 772/1/770 315/1/11
f 771/1/768 6/1/4 316/1/12
f 772/1/770 770/1/769 1/1/7
f 770/1/769 772/1/770 316/1/12
f 773/1/771 774/1/772 41/1/130
f 774/1/772 773/1/771 38/1/163
f 775/1/773 99/1/355 41/1/130
f 775/1/773 774/1/772 42/1/131
f 776/1/774 95/1/343 99/1/355
f 775/1/773 100/1/354 96/1/345
f 773/1/771 37/1/160 95/1/343
f 776/1/774 96/1/345 38/1/163
